<svg width="81" height="81" viewBox="0 0 81 81" fill="none" xmlns="http://www.w3.org/2000/svg">
<g clip-path="url(#clip0_10_45)">
<path d="M59.4286 29.3972C59.4286 29.3972 76.8045 69.7847 77.4943 71.4462C78.0703 72.8342 76.5625 75.01 76.0482 75.6913C76.0285 75.7172 76.0033 75.7384 75.9743 75.7534C75.9453 75.7684 75.9134 75.7767 75.8808 75.7777C75.8482 75.7788 75.8158 75.7725 75.7859 75.7594C75.7561 75.7464 75.7295 75.7268 75.7082 75.7021L46.0496 42.0126C46.0496 42.0126 45.8076 41.9231 45.9056 41.7573C46.5482 40.5908 49.9824 35.5458 59.4286 29.3972Z" fill="url(#paint0_linear_10_45)"/>
<path d="M75.7082 75.7021L75.4383 75.396C76.0434 74.4279 77.3285 72.8765 76.9159 71.8721C76.237 70.2215 58.5549 30.2528 58.5549 30.2528C58.7594 29.8377 59.3136 29.1383 59.4298 29.396C59.4298 29.396 76.8058 69.7847 77.4943 71.4462C78.0703 72.8342 76.5625 75.01 76.0494 75.69C76.0297 75.7161 76.0044 75.7374 75.9754 75.7525C75.9464 75.7676 75.9144 75.776 75.8817 75.7772C75.849 75.7783 75.8165 75.7722 75.7865 75.7592C75.7565 75.7462 75.7297 75.7267 75.7082 75.7021Z" fill="url(#paint1_linear_10_45)"/>
<g style="mix-blend-mode:multiply" opacity="0.75">
<path d="M73.1839 70.0231L71.8673 71.3385L71.7923 71.2537L73.0653 69.9807L66.734 62.2481L65.2117 63.7728L65.1355 63.6857L66.6663 62.1573L60.3349 54.4247L58.5525 56.2036L58.4798 56.1189L60.2648 54.334L53.9322 46.6038L51.8968 48.6367L51.8242 48.5557L53.8996 46.4803C53.9117 46.4682 53.9238 46.4561 53.9419 46.4622C53.9582 46.4632 53.9734 46.4706 53.9843 46.4828L73.1948 69.9408C73.2038 69.9533 73.2077 69.9688 73.2057 69.9841C73.2036 69.9994 73.1959 70.0133 73.1839 70.0231Z" fill="#C2C3C9"/>
</g>
<path d="M35.4454 50.1337L28.9749 54.6438L31.5718 59.3656L32.6343 58.3031L35.4454 50.1337Z" fill="#F0F1F5"/>
<path d="M30.8663 45.5546L26.3562 52.0251L21.6344 49.427L22.6968 48.3657L30.8663 45.5546Z" fill="#F0F1F5"/>
<path d="M36.9447 53.5583L33.2829 51.6862L45.4191 41.3809L47.2706 43.2324L36.9447 53.5583Z" fill="url(#paint2_linear_10_45)"/>
<path d="M50.6661 45.4215C50.7424 45.2941 50.772 45.1442 50.75 44.9974C50.7279 44.8506 50.6555 44.7161 50.5451 44.6168L49.3689 43.4418L48.1927 42.2655C48.0936 42.1553 47.9592 42.0829 47.8126 42.0608C47.666 42.0388 47.5163 42.0683 47.3892 42.1445C47.3892 42.1445 46.3303 42.6031 44.8165 44.1182C43.3026 45.6333 41.8444 47.1774 39.6396 49.6847C38.2347 51.2784 37.079 52.831 36.6373 53.4361C36.5842 53.5193 36.5623 53.6187 36.5754 53.7165C36.5884 53.8144 36.6357 53.9045 36.7087 53.9709L37.7736 55.037L38.8397 56.1019C38.9059 56.1749 38.9958 56.2221 39.0935 56.2351C39.1911 56.2482 39.2903 56.2263 39.3734 56.1733C39.9784 55.7316 41.5334 54.576 43.1247 53.171C45.626 50.9662 47.394 49.2866 48.6912 47.9942C49.4613 47.2285 50.1254 46.3633 50.6661 45.4215Z" fill="#D5D6E0"/>
<path d="M50.4822 45.7398L47.066 42.3237C47.2778 42.2027 47.394 42.1506 47.394 42.1506C47.5212 42.0744 47.6709 42.0449 47.8175 42.0669C47.964 42.089 48.0984 42.1614 48.1975 42.2716L50.55 44.6229C50.6603 44.7222 50.7327 44.8567 50.7548 45.0035C50.7769 45.1503 50.7472 45.3002 50.671 45.4276C50.671 45.4276 50.6044 45.5426 50.4822 45.7398Z" fill="url(#paint3_linear_10_45)"/>
<path d="M51.604 21.5714C51.604 21.5714 11.2165 4.19545 9.55381 3.50569C8.20696 2.94661 6.11591 4.35277 5.3729 4.90458C5.33924 4.92973 5.31159 4.96209 5.29204 4.99928C5.27249 5.03648 5.26152 5.07757 5.2599 5.11956C5.25828 5.16155 5.26606 5.20337 5.28268 5.24197C5.2993 5.28057 5.32432 5.31497 5.35595 5.34264L38.9873 34.9504C38.9873 34.9504 39.083 35.0811 39.135 35.0545C39.8357 34.6975 45.0633 31.6263 51.604 21.5714Z" fill="url(#paint4_linear_10_45)"/>
<path d="M5.29908 5.2918L5.60403 5.56165C6.56607 4.95659 8.12467 3.67146 9.12785 4.08411C10.7784 4.76298 50.7484 22.4463 50.7484 22.4463C51.1635 22.2406 51.8617 21.6864 51.604 21.5714C51.604 21.5714 11.2165 4.19544 9.55382 3.50567C8.16703 2.92966 5.99127 4.43867 5.30998 4.95781C5.28506 4.97757 5.26475 5.00251 5.25045 5.03091C5.23615 5.05931 5.2282 5.09049 5.22717 5.12228C5.22613 5.15406 5.23203 5.1857 5.24445 5.21497C5.25687 5.24424 5.2755 5.27046 5.29908 5.2918Z" fill="url(#paint5_linear_10_45)"/>
<g style="mix-blend-mode:multiply" opacity="0.75">
<path d="M34.5329 27.0665C34.5329 27.0744 34.5312 27.0823 34.5281 27.0895C34.525 27.0968 34.5205 27.1034 34.5148 27.1089L32.4394 29.1842L32.3547 29.1116L34.3877 27.075L26.6587 20.7437L24.8726 22.5262L24.7879 22.4536L26.5668 20.6723L18.8342 14.3398L17.307 15.8706L17.2187 15.7956L18.7434 14.2744L11.0108 7.94193L9.74623 9.20891L9.66153 9.13267L10.9745 7.81971C10.985 7.81084 10.9983 7.80597 11.012 7.80597C11.0257 7.80597 11.039 7.81084 11.0495 7.81971L34.5111 27.0278C34.5215 27.0387 34.5291 27.052 34.5329 27.0665Z" fill="#C2C3C9"/>
</g>
<path d="M27.4417 44.0553L29.3137 47.7171L39.619 35.5809L37.7676 33.7307L27.4417 44.0553Z" fill="url(#paint6_linear_10_45)"/>
<path d="M35.5785 30.335C35.7056 30.2586 35.8554 30.2289 36.002 30.251C36.1487 30.2731 36.283 30.3456 36.382 30.4561L37.5582 31.6323L38.7345 32.8085C38.8435 32.9085 38.9146 33.0432 38.9356 33.1897C38.9565 33.3362 38.9261 33.4855 38.8494 33.612C38.8494 33.612 38.3908 34.6709 36.8757 36.1859C35.3607 37.701 33.8166 39.158 31.3092 41.3616C29.7155 42.7665 28.1629 43.9222 27.5579 44.3639C27.4749 44.417 27.3759 44.4391 27.2782 44.4263C27.1806 44.4134 27.0906 44.3665 27.0242 44.2937L25.9581 43.2276L24.892 42.1615C24.8192 42.0951 24.7722 42.0052 24.7592 41.9076C24.7461 41.81 24.7679 41.711 24.8206 41.6278C25.2635 41.0228 26.4191 39.469 27.8241 37.8765C30.0277 35.374 31.7085 33.6072 32.9997 32.31C33.7669 31.5391 34.6343 30.8748 35.5785 30.335Z" fill="#D5D6E0"/>
<path d="M35.2614 30.519L38.6764 33.9339C38.7974 33.7221 38.8494 33.606 38.8494 33.606C38.9261 33.4794 38.9565 33.3302 38.9356 33.1837C38.9146 33.0372 38.8435 32.9025 38.7344 32.8025L36.382 30.45C36.283 30.3396 36.1487 30.2671 36.002 30.245C35.8554 30.2229 35.7056 30.2526 35.5785 30.329C35.5785 30.329 35.4611 30.3956 35.2614 30.519Z" fill="url(#paint7_linear_10_45)"/>
<path d="M80.7629 0.238384C79.5406 -0.983828 70.6209 2.55333 63.2586 9.91927L49.0156 24.1611C37.2775 35.8992 19.2093 58.9663 20.6227 60.3797C22.0361 61.7931 45.1009 43.7274 56.8414 31.9893L71.0844 17.7463C78.4467 10.3791 81.9899 1.45939 80.7629 0.238384Z" fill="#D5D6E0"/>
<path d="M80.7628 0.238403C79.9085 -0.617146 71.7983 3.73078 64.436 11.0931L50.193 25.3337C38.4549 37.0718 19.6353 59.3874 20.6227 60.3749C21.6102 61.3623 43.9234 42.5451 55.6639 30.8046L69.9069 16.5628C77.2704 9.2017 81.6172 1.09274 80.7628 0.238403Z" fill="url(#paint8_linear_10_45)"/>
<g style="mix-blend-mode:multiply">
<path d="M54.5796 33.6471L54.858 33.9254C54.8943 33.8916 54.9318 33.8565 54.9669 33.8214L54.6862 33.5406C54.6127 33.4675 54.5133 33.4265 54.4096 33.4265C54.306 33.4265 54.2066 33.4675 54.1331 33.5406L52.8891 34.7846C52.8528 34.8209 52.824 34.864 52.8043 34.9115C52.7846 34.9589 52.7745 35.0098 52.7745 35.0611C52.7745 35.1125 52.7846 35.1633 52.8043 35.2108C52.824 35.2582 52.8528 35.3013 52.8891 35.3376L53.1202 35.5688C53.1565 35.5349 53.1929 35.4998 53.2304 35.4671L52.9884 35.2251C52.9436 35.1798 52.9186 35.1187 52.9186 35.0551C52.9186 34.9914 52.9436 34.9304 52.9884 34.8851L54.2335 33.6411C54.2565 33.6184 54.2837 33.6005 54.3137 33.5886C54.3436 33.5766 54.3756 33.5707 54.4079 33.5712C54.4401 33.5718 54.4719 33.5788 54.5014 33.5918C54.5309 33.6049 54.5575 33.6237 54.5796 33.6471Z" fill="#C2C3C9"/>
</g>
<g style="mix-blend-mode:multiply">
<path d="M62.9681 11.9982L61.1433 13.8243C61.0701 13.8966 60.9714 13.9371 60.8686 13.9371C60.7657 13.9371 60.667 13.8966 60.5939 13.8243L59.9719 13.2011L59.8654 13.3076L60.4886 13.9296C60.5896 14.0304 60.7265 14.0871 60.8692 14.0871C61.0119 14.0871 61.1488 14.0304 61.2498 13.9296L63.0746 12.1047C63.1245 12.0548 63.1641 11.9956 63.1911 11.9304C63.2181 11.8652 63.232 11.7953 63.232 11.7248C63.232 11.6542 63.2181 11.5843 63.1911 11.5191C63.1641 11.4539 63.1245 11.3947 63.0746 11.3448L62.4526 10.7228L62.3461 10.8281L62.9681 11.4513C63.0041 11.4871 63.0327 11.5297 63.0522 11.5767C63.0717 11.6236 63.0817 11.6739 63.0817 11.7248C63.0817 11.7756 63.0717 11.8259 63.0522 11.8728C63.0327 11.9197 63.0041 11.9624 62.9681 11.9982Z" fill="#C2C3C9"/>
</g>
<path d="M65.9244 22.9013L64.8898 23.9372L64.7022 23.7496C64.6407 23.6877 64.6061 23.604 64.6061 23.5167C64.6061 23.4294 64.6407 23.3456 64.7022 23.2837L65.271 22.715C65.3015 22.6842 65.3377 22.6598 65.3777 22.6431C65.4177 22.6264 65.4606 22.6179 65.5039 22.6179C65.5472 22.6179 65.5901 22.6264 65.6301 22.6431C65.6701 22.6598 65.7064 22.6842 65.7369 22.715L65.9244 22.9013Z" fill="#3D3E40"/>
<path d="M63.7825 25.0433L62.7491 26.0779L62.5615 25.8903C62.5001 25.8286 62.4656 25.7451 62.4656 25.658C62.4656 25.5709 62.5001 25.4874 62.5615 25.4257L63.1315 24.8557C63.1932 24.7942 63.2768 24.7597 63.3638 24.7597C63.4509 24.7597 63.5345 24.7942 63.5962 24.8557L63.7825 25.0433Z" fill="#3D3E40"/>
<path d="M61.6418 27.184L60.6072 28.2186L60.4196 28.0323C60.3582 27.9706 60.3236 27.887 60.3236 27.7999C60.3236 27.7128 60.3582 27.6293 60.4196 27.5676L60.9908 26.9964C61.0525 26.9349 61.136 26.9004 61.2231 26.9004C61.3102 26.9004 61.3938 26.9349 61.4555 26.9964L61.6418 27.184Z" fill="#3D3E40"/>
<path d="M59.5012 29.327L58.4653 30.3617L58.279 30.1753C58.2482 30.1448 58.2238 30.1086 58.2071 30.0686C58.1904 30.0286 58.1819 29.9857 58.1819 29.9424C58.1819 29.8991 58.1904 29.8562 58.2071 29.8162C58.2238 29.7762 58.2482 29.7399 58.279 29.7094L58.8489 29.1395C58.9106 29.078 58.9942 29.0435 59.0812 29.0435C59.1683 29.0435 59.2519 29.078 59.3136 29.1395L59.5012 29.327Z" fill="#3D3E40"/>
<path d="M57.3593 31.4677L56.8413 31.9844C56.6707 32.155 56.4977 32.3281 56.321 32.4999L56.1371 32.316C56.0751 32.254 56.0403 32.17 56.0403 32.0824C56.0403 31.9949 56.0751 31.9108 56.1371 31.8489L56.7058 31.2801C56.7675 31.2187 56.8511 31.1841 56.9382 31.1841C57.0253 31.1841 57.1088 31.2187 57.1705 31.2801L57.3593 31.4677Z" fill="#3D3E40"/>
<path d="M58.0987 15.0756L57.064 16.1114L57.2504 16.2978C57.3123 16.3593 57.396 16.3939 57.4833 16.3939C57.5706 16.3939 57.6543 16.3593 57.7162 16.2978L58.2862 15.729C58.3477 15.6673 58.3822 15.5838 58.3822 15.4967C58.3822 15.4096 58.3477 15.326 58.2862 15.2643L58.0987 15.0756Z" fill="#3D3E40"/>
<path d="M55.9568 17.2175L54.9233 18.2521L55.1097 18.4385C55.1716 18.5 55.2553 18.5346 55.3426 18.5346C55.4299 18.5346 55.5137 18.5 55.5756 18.4385L56.1443 17.8697C56.2059 17.8078 56.2404 17.7241 56.2404 17.6368C56.2404 17.5495 56.2059 17.4657 56.1443 17.4038L55.9568 17.2175Z" fill="#3D3E40"/>
<path d="M53.8161 19.3582L52.7814 20.3928L52.9678 20.5804C53.0297 20.6419 53.1134 20.6765 53.2007 20.6765C53.288 20.6765 53.3718 20.6419 53.4337 20.5804L54.0036 20.0104C54.0652 19.9485 54.0997 19.8648 54.0997 19.7775C54.0997 19.6902 54.0652 19.6064 54.0036 19.5445L53.8161 19.3582Z" fill="#3D3E40"/>
<path d="M51.6754 21.5001L50.6395 22.5347L50.8271 22.7223C50.8888 22.7838 50.9723 22.8183 51.0594 22.8183C51.1465 22.8183 51.2301 22.7838 51.2918 22.7223L51.8617 22.1523C51.9233 22.0904 51.9578 22.0067 51.9578 21.9194C51.9578 21.8321 51.9233 21.7483 51.8617 21.6864L51.6754 21.5001Z" fill="#3D3E40"/>
<path d="M49.5335 23.6395L49.0156 24.1562C48.8449 24.3269 48.6719 24.4999 48.5 24.6766L48.6852 24.8617C48.7471 24.9233 48.8309 24.9578 48.9181 24.9578C49.0054 24.9578 49.0892 24.9233 49.1511 24.8617L49.7199 24.2918C49.7813 24.2301 49.8158 24.1465 49.8158 24.0594C49.8158 23.9723 49.7813 23.8888 49.7199 23.8271L49.5335 23.6395Z" fill="#3D3E40"/>
<path d="M23.8912 58.3346L28.9132 77.1446C28.9601 77.3216 28.9598 77.5079 28.9123 77.6848C28.8647 77.8617 28.7715 78.023 28.6421 78.1526L25.8903 80.9044C25.8538 80.941 25.8091 80.9684 25.7599 80.9844C25.7107 81.0005 25.6585 81.0046 25.6074 80.9966C25.5563 80.9886 25.5078 80.9686 25.4659 80.9383C25.424 80.9079 25.3899 80.8681 25.3664 80.8221L16.9476 64.4941L23.8912 58.3346Z" fill="url(#paint9_linear_10_45)"/>
<g style="mix-blend-mode:multiply">
<path d="M27.242 79.5527L27.1876 79.6072C27.1838 79.6036 27.1805 79.5996 27.1779 79.5951L20.4013 64.0476L17.9811 66.4678L17.9726 66.4775L17.9363 66.4109L20.3952 63.9508C20.4047 63.9427 20.4167 63.9384 20.4291 63.9387C20.4403 63.9424 20.4498 63.9502 20.4557 63.9604L27.242 79.5527Z" fill="#C2C3C9"/>
</g>
<path d="M22.6654 57.1088L3.85662 52.088C3.67952 52.0404 3.49299 52.0403 3.31582 52.0877C3.13866 52.1351 2.97709 52.2282 2.84738 52.3579L0.0955854 55.1097C0.0592334 55.1464 0.0320241 55.1911 0.0161423 55.2402C0.000260591 55.2893 -0.00386269 55.3415 0.00414758 55.3925C0.0121578 55.4435 0.0320836 55.4919 0.0622601 55.5338C0.0924366 55.5757 0.132024 55.6099 0.177865 55.6337L16.5059 64.0572L22.6654 57.1088Z" fill="url(#paint10_linear_10_45)"/>
<g style="mix-blend-mode:multiply">
<path d="M17.0553 60.5721C17.0567 60.5781 17.0564 60.5844 17.0542 60.5902C17.052 60.596 17.0482 60.6011 17.0432 60.6047L14.5867 63.0649L14.5201 63.0286L14.5286 63.0189L16.9549 60.5926L1.40495 53.8221C1.40495 53.8221 1.39889 53.8221 1.39647 53.8136L1.45092 53.7592L17.0372 60.5442C17.0463 60.5511 17.0527 60.5609 17.0553 60.5721Z" fill="#C2C3C9"/>
</g>
<path d="M16.0388 64.9576C15.9401 64.8589 15.8618 64.7418 15.8083 64.6128C15.7549 64.4839 15.7274 64.3457 15.7274 64.2061C15.7274 64.0665 15.7549 63.9283 15.8083 63.7994C15.8618 63.6705 15.9401 63.5533 16.0388 63.4546L33.7282 45.7652C33.9278 45.5664 34.198 45.4548 34.4797 45.4548C34.7614 45.4548 35.0316 45.5664 35.2312 45.7652C35.3299 45.8639 35.4082 45.981 35.4616 46.11C35.515 46.2389 35.5425 46.3771 35.5425 46.5167C35.5425 46.6563 35.515 46.7945 35.4616 46.9234C35.4082 47.0524 35.3299 47.1695 35.2312 47.2682L17.5418 64.9576C17.4431 65.0563 17.326 65.1346 17.197 65.1881C17.0681 65.2415 16.9299 65.269 16.7903 65.269C16.6507 65.269 16.5125 65.2415 16.3836 65.1881C16.2546 65.1346 16.1375 65.0563 16.0388 64.9576Z" fill="url(#paint11_linear_10_45)"/>
<path d="M29.0306 51.9694C28.7486 51.6887 27.9717 51.5253 27.0508 52.4535L26.1783 53.3248C26.1783 53.3248 27.4925 52.5382 27.9802 53.0258C28.4679 53.5135 27.6813 54.8277 27.6813 54.8277L28.6191 53.8899C28.6191 53.8899 29.6828 52.6229 29.0306 51.9694Z" fill="#32558C"/>
<g style="mix-blend-mode:multiply" opacity="0.75">
<path d="M54.3993 26.6781C54.3793 26.6778 54.3601 26.6695 54.3461 26.6551C54.3323 26.6411 54.3245 26.6222 54.3245 26.6025C54.3245 26.5828 54.3323 26.5639 54.3461 26.5498L55.9047 24.9912C55.9189 24.9773 55.938 24.9695 55.9579 24.9695C55.9778 24.9695 55.997 24.9773 56.0112 24.9912C56.025 25.0053 56.0328 25.0242 56.0328 25.0439C56.0328 25.0636 56.025 25.0825 56.0112 25.0965L54.4526 26.6551C54.4385 26.6695 54.4194 26.6778 54.3993 26.6781Z" fill="#C2C3C9"/>
</g>
<path d="M74.2863 12.6457C75.2544 11.3291 75.7384 8.02062 74.3589 6.6411C72.9794 5.26157 69.671 5.74198 68.3544 6.7137C67.0378 7.68542 66.682 8.11138 66.8211 8.31589C66.9603 8.5204 70.7068 6.84439 72.4312 8.5688C74.1556 10.2932 72.4784 14.0397 72.6841 14.1789C72.8899 14.318 73.3158 13.9586 74.2863 12.6457Z" fill="url(#paint12_linear_10_45)"/>
<path d="M74.8066 10.2278C74.8792 9.69902 75.0111 8.21057 74.3843 7.2207L72.9794 8.62566C73.2589 9.07166 73.444 9.57021 73.5233 10.0905C73.6026 10.6109 73.5744 11.1419 73.4405 11.6509C73.439 11.6552 73.439 11.6598 73.4405 11.664C73.442 11.6682 73.445 11.6717 73.4488 11.674C73.4527 11.6763 73.4572 11.6772 73.4616 11.6765C73.4661 11.6758 73.4701 11.6736 73.4731 11.6703L74.6917 10.4529C74.7526 10.3918 74.7928 10.313 74.8066 10.2278Z" fill="#353638"/>
<path d="M74.6784 10.9454L73.4743 12.1483C73.4598 12.163 73.4498 12.1814 73.4453 12.2015L73.0822 13.5919C73.0806 13.5997 73.0815 13.6077 73.0849 13.6149C73.0882 13.622 73.0938 13.6279 73.1008 13.6316C73.1077 13.6353 73.1157 13.6366 73.1235 13.6353C73.1313 13.6341 73.1385 13.6303 73.1439 13.6246C73.4126 13.3027 74.1253 12.4327 74.354 11.991C74.5011 11.6599 74.6225 11.3181 74.7171 10.9684C74.7188 10.9634 74.7187 10.958 74.7169 10.953C74.7151 10.948 74.7116 10.9439 74.7071 10.9412C74.7025 10.9385 74.6972 10.9374 74.692 10.9382C74.6867 10.939 74.6819 10.9415 74.6784 10.9454Z" fill="#353638"/>
<path d="M70.7721 6.19333C71.301 6.12193 72.7906 5.99003 73.7793 6.61687L72.3743 8.02181C71.9285 7.74187 71.43 7.55651 70.9096 7.4772C70.3891 7.39789 69.858 7.42633 69.349 7.56076C69.3447 7.56198 69.3401 7.56174 69.3359 7.5601C69.3317 7.55845 69.3282 7.55547 69.3259 7.55163C69.3236 7.54779 69.3226 7.5433 69.323 7.53882C69.3235 7.53435 69.3254 7.53015 69.3285 7.52687L70.5471 6.30951C70.6077 6.24767 70.6866 6.20694 70.7721 6.19333Z" fill="#353638"/>
<path d="M70.0546 6.32285L68.8517 7.52569C68.8373 7.53992 68.8193 7.54996 68.7997 7.55473L67.408 7.91777C67.4003 7.91941 67.3923 7.9185 67.3851 7.91515C67.378 7.91181 67.3721 7.90622 67.3684 7.89924C67.3647 7.89227 67.3634 7.88427 67.3646 7.87648C67.3659 7.86869 67.3697 7.86151 67.3754 7.85605C67.6973 7.58862 68.5685 6.87465 69.009 6.64594C69.3404 6.49875 69.6827 6.37738 70.0328 6.28291C70.0379 6.281 70.0436 6.28102 70.0488 6.28296C70.054 6.28491 70.0582 6.28864 70.0609 6.29348C70.0635 6.29832 70.0643 6.30396 70.0632 6.30935C70.062 6.31474 70.059 6.31953 70.0546 6.32285Z" fill="#353638"/>
</g>
<defs>
<linearGradient id="paint0_linear_10_45" x1="83.2351" y1="68.2153" x2="39.3705" y2="24.3507" gradientUnits="userSpaceOnUse">
<stop stop-color="#CDCED9"/>
<stop offset="0.48" stop-color="#CBCCD7"/>
<stop offset="0.76" stop-color="#C3C4CE"/>
<stop offset="0.98" stop-color="#B6B7C1"/>
<stop offset="1" stop-color="#B5B6BF"/>
</linearGradient>
<linearGradient id="paint1_linear_10_45" x1="69.3021" y1="51.883" x2="62.2385" y2="54.7384" gradientUnits="userSpaceOnUse">
<stop stop-color="#DEDFEB"/>
<stop offset="0.35" stop-color="#CBCCD7"/>
<stop offset="0.45" stop-color="#B5B6BF"/>
<stop offset="0.52" stop-color="#B0B1BA"/>
<stop offset="0.61" stop-color="#A2A3AB"/>
<stop offset="0.7" stop-color="#8C8D93"/>
<stop offset="0.71" stop-color="#8E8F95"/>
<stop offset="0.76" stop-color="#9FA0A8"/>
<stop offset="0.81" stop-color="#ACADB5"/>
<stop offset="0.87" stop-color="#B3B4BD"/>
<stop offset="1" stop-color="#B5B6BF"/>
</linearGradient>
<linearGradient id="paint2_linear_10_45" x1="40.5958" y1="47.7762" x2="38.6586" y2="45.8389" gradientUnits="userSpaceOnUse">
<stop stop-color="#CDCED9"/>
<stop offset="1" stop-color="#B5B6BF"/>
</linearGradient>
<linearGradient id="paint3_linear_10_45" x1="45.836" y1="43.8996" x2="50.6654" y2="43.8996" gradientUnits="userSpaceOnUse">
<stop stop-color="#B5B6BF"/>
<stop offset="1" stop-color="#919299"/>
</linearGradient>
<linearGradient id="paint4_linear_10_45" x1="12.6851" y1="-2.68514" x2="56.6931" y2="41.3228" gradientUnits="userSpaceOnUse">
<stop stop-color="#CDCED9"/>
<stop offset="0.47" stop-color="#CBCCD6"/>
<stop offset="0.75" stop-color="#C3C4CE"/>
<stop offset="0.99" stop-color="#B5B6BF"/>
<stop offset="1" stop-color="#B5B6BF"/>
</linearGradient>
<linearGradient id="paint5_linear_10_45" x1="-14275.1" y1="-27871.5" x2="-15017.1" y2="-26816.5" gradientUnits="userSpaceOnUse">
<stop stop-color="#DEDFEB"/>
<stop offset="0.35" stop-color="#CBCCD7"/>
<stop offset="0.45" stop-color="#B5B6BF"/>
<stop offset="0.52" stop-color="#B0B1BA"/>
<stop offset="0.61" stop-color="#A2A3AB"/>
<stop offset="0.7" stop-color="#8C8D93"/>
<stop offset="0.71" stop-color="#8E8F95"/>
<stop offset="0.76" stop-color="#9FA0A8"/>
<stop offset="0.81" stop-color="#ACADB5"/>
<stop offset="0.87" stop-color="#B3B4BD"/>
<stop offset="1" stop-color="#B5B6BF"/>
</linearGradient>
<linearGradient id="paint6_linear_10_45" x1="-188.853" y1="-7372.09" x2="6.80413" y2="-7176.43" gradientUnits="userSpaceOnUse">
<stop stop-color="#CDCED9"/>
<stop offset="1" stop-color="#B5B6BF"/>
</linearGradient>
<linearGradient id="paint7_linear_10_45" x1="9621.26" y1="4828.09" x2="9761.3" y2="4828.09" gradientUnits="userSpaceOnUse">
<stop stop-color="#B5B6BF"/>
<stop offset="1" stop-color="#919299"/>
</linearGradient>
<linearGradient id="paint8_linear_10_45" x1="47.9607" y1="27.5741" x2="53.431" y2="33.0444" gradientUnits="userSpaceOnUse">
<stop stop-color="#DDDEE6"/>
<stop offset="0.51" stop-color="#E9EAF2"/>
<stop offset="1" stop-color="#DDDEE6"/>
</linearGradient>
<linearGradient id="paint9_linear_10_45" x1="29811.5" y1="36721.2" x2="31857.5" y2="36721.2" gradientUnits="userSpaceOnUse">
<stop stop-color="#CDCED9"/>
<stop offset="0.48" stop-color="#CBCCD7"/>
<stop offset="0.76" stop-color="#C3C4CE"/>
<stop offset="0.98" stop-color="#B6B7C1"/>
<stop offset="1" stop-color="#B5B6BF"/>
</linearGradient>
<linearGradient id="paint10_linear_10_45" x1="53102.5" y1="18317.3" x2="58268.3" y2="18317.3" gradientUnits="userSpaceOnUse">
<stop stop-color="#CDCED9"/>
<stop offset="0.48" stop-color="#CBCCD7"/>
<stop offset="0.76" stop-color="#C3C4CE"/>
<stop offset="0.98" stop-color="#B6B7C1"/>
<stop offset="1" stop-color="#B5B6BF"/>
</linearGradient>
<linearGradient id="paint11_linear_10_45" x1="24.889" y1="54.6126" x2="26.3924" y2="56.1161" gradientUnits="userSpaceOnUse">
<stop stop-color="#C9CAD1"/>
<stop offset="0.5" stop-color="#E9EAF2"/>
<stop offset="1" stop-color="#C9CAD1"/>
</linearGradient>
<linearGradient id="paint12_linear_10_45" x1="68.9795" y1="5.86721" x2="75.1378" y2="12.0255" gradientUnits="userSpaceOnUse">
<stop stop-color="#516F9C"/>
<stop offset="0.51" stop-color="#7188AB"/>
<stop offset="0.55" stop-color="#6A82A8"/>
<stop offset="0.65" stop-color="#5C77A1"/>
<stop offset="0.78" stop-color="#53719D"/>
<stop offset="1" stop-color="#516F9C"/>
</linearGradient>
<clipPath id="clip0_10_45">
<rect width="81" height="81" fill="white"/>
</clipPath>
</defs>
</svg>
