<svg width="25" height="31" viewBox="0 0 25 31" fill="none" xmlns="http://www.w3.org/2000/svg">
<g style="mix-blend-mode:multiply" opacity="0.6">
<path d="M23.3738 27.7596C23.4001 27.7428 23.4225 27.7205 23.4393 27.6942C23.4752 27.6646 23.5067 27.63 23.5327 27.5915L23.5888 27.5261C23.6247 27.4965 23.6562 27.4619 23.6823 27.4234L23.7383 27.358L23.8318 27.2366V27.1899L23.9533 27.0218C23.9506 27.0032 23.9506 26.9844 23.9533 26.9658L24.0281 26.8444C24.0469 26.8217 24.0626 26.7966 24.0748 26.7697L24.1402 26.667C24.1522 26.6371 24.1679 26.6088 24.187 26.5829V26.4895C24.206 26.4636 24.2217 26.4353 24.2337 26.4055L24.2804 26.3121C24.2804 26.3121 24.2804 26.2467 24.3271 26.2187V26.1347C24.3271 26.1347 24.3271 26.0693 24.3271 26.0319C24.3307 26.004 24.3307 25.9758 24.3271 25.9479V25.8545V25.7705C24.3296 25.7363 24.3296 25.7019 24.3271 25.6677V25.593C24.3231 25.5558 24.3231 25.5182 24.3271 25.481V25.4343C24.3271 25.2755 24.4113 25.1168 24.4486 24.9673V24.8273C24.4486 24.8273 24.4486 24.7432 24.4486 24.6965C24.4486 24.6498 24.4486 24.6031 24.4486 24.5564V24.5098C24.4486 24.5098 24.4486 24.4164 24.4486 24.3697C24.4486 24.323 24.4486 24.2763 24.4486 24.2296C24.444 24.1799 24.444 24.1299 24.4486 24.0802C24.4719 23.0304 24.3268 21.9837 24.0187 20.9798C22.9503 17.8223 21.1096 14.9815 18.6636 12.7152L18.3739 12.435C18.1402 12.2203 17.8225 11.9121 17.5701 11.688V11.6319C17.5746 11.6041 17.5746 11.5757 17.5701 11.5479C17.5795 11.5175 17.5795 11.4849 17.5701 11.4545C17.5701 11.193 17.4019 10.8382 17.4113 10.586C17.4113 10.1845 17.8785 9.99769 17.6542 9.79224C17.5478 9.71175 17.4274 9.6516 17.2991 9.61481C17.6596 8.71301 18.1039 7.84697 18.6262 7.02804C19.4673 5.70197 18.1215 5.28173 16.4299 5.16033H16.0561H15.5701C15.0468 5.16033 14.514 5.16033 14.0374 5.16033C13.8257 5.14936 13.6136 5.14936 13.4019 5.16033H12.6542H11.5047H11.5701C10.4547 5.14187 9.34276 5.2898 8.27104 5.59924C7.60749 5.87006 7.64489 6.22492 7.64489 6.22492C7.62668 6.38274 7.64227 6.54262 7.6906 6.69396C7.73894 6.8453 7.81892 6.98464 7.92525 7.10274C8.47485 7.86976 8.90935 8.71291 9.21497 9.60547C9.08413 9.71753 9.21497 9.83893 9.27104 9.98835C9.24756 10.2243 9.24756 10.4621 9.27104 10.6981C9.26608 10.7883 9.26608 10.8787 9.27104 10.9689C9.27104 11.081 9.21498 11.1837 9.19629 11.2771V11.3704C9.19172 11.3951 9.19172 11.4205 9.19629 11.4452V11.5012L9.25236 11.5572H9.34583C7.88788 12.7806 4.09349 16.3012 2.71966 20.9705C2.08375 22.7966 2.15036 24.7938 2.90656 26.5736L2.99067 26.7323L3.07478 26.8817C3.07478 26.8817 3.1402 26.9751 3.16824 27.0312L3.27106 27.1806L3.37385 27.3113C3.41313 27.3507 3.44765 27.3946 3.47667 27.442L3.58881 27.5728L3.63553 27.6195L3.74768 27.7409V27.7876L3.86918 27.8996V27.9557L3.99068 28.0677L4.0561 28.1144L4.1776 28.2171L4.243 28.2732L4.37386 28.3759H4.44861L4.58882 28.4786L4.66357 28.5347L4.80376 28.628L4.88786 28.6747L5.02807 28.7681L5.12151 28.8148L5.27105 28.9082C5.30477 28.918 5.33645 28.9338 5.36451 28.9549L5.5234 29.0389L5.62619 29.0856L5.78508 29.1697L5.89723 29.2164L6.06544 29.2911L6.18694 29.3378L6.35516 29.4125H6.47666L6.65423 29.4778L6.78506 29.5245L6.96263 29.5806L7.10281 29.6273L7.28974 29.6926H7.43928L7.63553 29.7487H7.78507L7.99068 29.8047H8.14957H8.35518H8.52339H8.73833H8.9159H9.14954H9.31779H9.4019C9.83181 29.8919 10.2898 29.9572 10.7757 30.0008H11.2523H11.9066C12.243 30.0008 12.5982 30.0568 12.9626 30.0755C13.0748 30.0755 13.2897 30.0755 13.5608 30.0755C13.8318 30.0755 13.9813 30.0755 14.0748 30.0755H15.0094H15.3738H15.4767H15.7477H15.944H16.1963H16.4019H16.6355H16.8411H17.0561H17.271H17.4767H17.6823H17.8785H18.0841H18.271L18.4767 30.0288H18.6449L18.8785 29.9728H19L19.3552 29.8794H19.3832L19.6729 29.7954H19.7851L20 29.73L20.1122 29.6833L20.3084 29.6179H20.4299L20.6075 29.5432L20.729 29.4965L20.9066 29.4312H21.0094L21.1776 29.3564L21.2804 29.3098L21.4486 29.2257L21.5421 29.179L21.7197 29.0856H21.7944L21.9907 28.9736L22.2243 28.8335C22.2996 28.7891 22.3714 28.7391 22.4393 28.6841H22.4953C22.5414 28.6446 22.5915 28.6102 22.6449 28.5813L22.7103 28.5253L22.8318 28.4226L22.9066 28.3666L23.0187 28.2732L23.0935 28.2078L23.1963 28.1144C23.2157 28.0903 23.2376 28.0684 23.2617 28.0491L23.3738 27.7596Z" fill="#450202"/>
</g>
<path d="M12.6449 1.34084H11.3271C8.97196 1.34084 5.22428 1.34084 6.60746 3.28325C7.63094 4.80492 8.27212 6.55077 8.47661 8.37275L11.8318 8.13929H15.4486C15.4486 8.13929 15.4486 6.27158 17.3178 3.28325C18.6262 1.31282 15.0093 1.34084 12.6449 1.34084Z" fill="url(#paint0_linear_4_2256)"/>
<path style="mix-blend-mode:multiply" d="M12.6449 1.34084H11.3271C8.97196 1.34084 5.22428 1.34084 6.60746 3.28325C7.63094 4.80492 8.27212 6.55077 8.47661 8.37275L11.8318 8.13929H15.4486C15.4486 8.13929 15.4486 6.27158 17.3178 3.28325C18.6262 1.31282 15.0093 1.34084 12.6449 1.34084Z" fill="url(#paint1_linear_4_2256)"/>
<path d="M22.6916 17.3004C20.9813 11.4732 15.4767 7.42029 15.4767 7.42029H12.8318V7.36426H8.74769C8.74769 7.36426 3.24301 11.4172 1.53273 17.2444C0.59815 20.2981 0.177601 26.1534 10.1309 26.9471C10.5327 26.9471 12.6542 27.0872 13.1028 27.0685C24.0561 26.5829 23.6169 20.4475 22.6916 17.3004Z" fill="url(#paint2_linear_4_2256)"/>
<path style="mix-blend-mode:multiply" d="M22.6916 17.3004C20.9813 11.4732 15.4767 7.42029 15.4767 7.42029H12.8318V7.36426H8.74769C8.74769 7.36426 3.24301 11.4172 1.53273 17.2444C0.59815 20.2981 0.177601 26.1534 10.1309 26.9471C10.5327 26.9471 12.6542 27.0872 13.1028 27.0685C24.0561 26.5829 23.6169 20.4475 22.6916 17.3004Z" fill="url(#paint3_linear_4_2256)"/>
<path style="mix-blend-mode:multiply" opacity="0.3" d="M13.1028 27.0592C12.6542 27.0592 10.5327 26.9658 10.1308 26.9378C1.14018 26.2187 0.644863 21.3346 1.28972 18.1969C1.90655 19.7751 4.09345 20.5315 10.1308 20.849C10.5327 20.849 12.6542 20.9424 13.1028 20.9237C19.8598 20.737 22.2804 19.9058 22.9252 18.2436C23.6075 21.5308 23.0654 26.6296 13.1028 27.0592Z" fill="url(#paint4_linear_4_2256)"/>
<path style="mix-blend-mode:screen" opacity="0.6" d="M13.0748 26.9844C12.7851 26.9844 12.4767 27.0405 12.1402 27.0591C11.8038 27.0778 10.0281 26.9658 9.69161 26.9377C1.51404 26.144 1.89722 20.2887 2.62619 17.235C3.67762 13.4698 5.72435 10.0569 8.55142 7.35486H11.5234C9.13728 10.1965 7.4847 13.5792 6.7103 17.207C6.11217 20.2607 5.77571 26.1159 12.486 26.9097L13.0748 26.9844Z" fill="url(#paint5_linear_4_2256)"/>
<path style="mix-blend-mode:multiply" d="M10.0374 26.9844C10.3738 26.9844 10.7196 27.0405 11.0841 27.0591C11.4486 27.0778 13.5233 26.9658 13.8878 26.9377C23.3458 26.144 22.9065 20.2887 22.0654 17.235C20.4299 11.4078 15.2056 7.35486 15.2056 7.35486H11.7757C14.4787 10.0895 16.4128 13.4877 17.3831 17.207C18.0841 20.2607 18.4299 26.1159 10.7103 26.9097L10.0374 26.9844Z" fill="url(#paint6_linear_4_2256)"/>
<path style="mix-blend-mode:multiply" d="M8.09351 7.83119C8.09351 7.83119 9.46732 8.76504 13.0748 9.03586C16.6823 9.30668 17.3365 9.03586 17.3365 9.03586C17.3365 9.03586 16 7.75648 15.8599 7.67244C15.7197 7.58839 8.40192 7.58839 8.09351 7.83119Z" fill="url(#paint7_linear_4_2256)"/>
<path style="mix-blend-mode:multiply" d="M16.5794 8.30745L16.4205 8.41017C15.0736 8.51303 13.7208 8.51303 12.3738 8.41017C10.9706 8.36008 9.57356 8.19769 8.19625 7.92457C8.19625 7.92457 8.19627 7.92457 8.14954 7.87787C8.54206 7.55103 8.77569 7.38293 8.77569 7.38293H12.8598V7.43896H15.5047C15.5047 7.43896 15.9065 7.72846 16.5794 8.30745Z" fill="url(#paint8_linear_4_2256)"/>
<path style="mix-blend-mode:screen" opacity="0.9" d="M6.00935 13.2382C6.79178 11.7437 7.75542 10.3511 8.87852 9.09192C7.1046 10.4717 5.66935 12.238 4.68224 14.2561C3.91471 15.7063 3.43848 17.2925 3.28037 18.9254C3.02048 19.8253 3.02048 20.7803 3.28037 21.6802C3.28037 21.6802 5.21497 14.2935 9.49534 9.68025C8.1947 10.7222 7.02428 11.9168 6.00935 13.2382Z" fill="url(#paint9_linear_4_2256)"/>
<path style="mix-blend-mode:multiply" opacity="0.3" d="M19.7757 15.8062C18.7103 10.9689 16.1776 9.64282 16.1776 9.64282C16.1776 9.64282 19.2898 16.2358 18.4019 23.2397C18.4486 23.2397 20.5888 19.4483 19.7757 15.8062Z" fill="url(#paint10_linear_4_2256)"/>
<path style="mix-blend-mode:multiply" d="M22.5888 17.3004C20.8692 11.4732 15.3738 7.42029 15.3738 7.42029H12.729V7.36426H8.63553C8.63553 7.36426 3.1402 11.4172 1.42057 17.2444C0.485993 20.2981 0.0747706 26.1534 10.028 26.9471C10.4299 26.9471 12.5514 27.0872 13 27.0685C23.972 26.5829 23.514 20.4475 22.5888 17.3004Z" fill="url(#paint11_linear_4_2256)"/>
<path d="M12.1683 23.9401C8.62316 23.9873 5.08481 23.6174 1.62622 22.8381C2.61687 24.8179 4.98136 26.5268 10.0374 26.9377C10.4393 26.9377 12.5608 27.0778 13.0094 27.0591C18.7384 26.807 21.3459 25.014 22.4019 22.9128C19.0399 23.6369 15.6072 23.9815 12.1683 23.9401Z" fill="url(#paint12_linear_4_2256)"/>
<g style="mix-blend-mode:color-dodge">
<path d="M6.29907 2.40554C6.29907 2.40554 6.29908 2.05067 6.9159 1.77986C7.98655 1.46534 9.09925 1.3173 10.215 1.34095C10.215 1.34095 8.53273 1.55573 8.53273 2.09736C8.53273 2.639 9.39253 5.83277 9.39253 5.83277C9.39253 5.83277 8.53272 3.47013 8.45795 2.82577L9.00002 6.56118C9.00002 6.56118 7.81309 3.75962 7.38319 3.01254C7.2855 2.81337 7.12945 2.64862 6.93581 2.54019C6.74216 2.43177 6.52008 2.3848 6.29907 2.40554Z" fill="#E2AB86"/>
</g>
<path d="M12.0747 1.34095C12.0747 1.34095 13.299 1.23823 13.514 1.6678C13.6483 2.44781 13.6828 3.24173 13.6168 4.03045C13.9322 3.16743 14.1485 2.27142 14.2616 1.35963L12.0747 1.34095Z" fill="#E2AB86"/>
<g style="mix-blend-mode:multiply" opacity="0.5">
<path d="M9.53271 2.20935C9.77302 3.37598 9.84541 4.57091 9.74768 5.75799L10.6823 5.64593C10.4109 4.46602 10.026 3.31513 9.53271 2.20935Z" fill="#E2AB86"/>
</g>
<g style="mix-blend-mode:multiply" opacity="0.5">
<path d="M14.7103 1.3783C14.5851 2.35932 14.3532 3.32377 14.0188 4.25456C13.5889 5.18841 13.1589 5.97285 13.1589 5.97285L15.3178 5.86079C15.3178 5.86079 15.4206 5.43121 15.6356 4.35728C15.8505 3.28335 15.6356 2.95651 15.6356 2.95651C15.6356 2.95651 15.1029 5.00164 14.5608 5.32849C14.8789 4.37872 15.1318 3.40837 15.3178 2.42421C15.3133 2.07838 15.2566 1.73522 15.1496 1.40631L14.7103 1.3783Z" fill="#E2AB86"/>
</g>
<g style="mix-blend-mode:multiply" opacity="0.5">
<path d="M12.9907 5.64599C12.9839 4.53266 13.0369 3.41977 13.1496 2.31213C13.1496 2.31213 12.3552 3.24599 12.9907 5.64599Z" fill="#E2AB86"/>
</g>
<path d="M16.4019 6.0475C16.1869 5.84205 14.8598 5.40314 12.1869 5.32843H12.1308C9.45792 5.24439 8.10279 5.60859 7.87849 5.79536C7.65419 5.98213 8.08409 6.19692 8.07475 6.59847C8.0654 7.00003 7.66354 7.53232 7.9626 7.78446C9.34537 8.02333 10.7463 8.14207 12.1495 8.13933C13.499 8.21404 14.8523 8.17968 16.1962 8.0366C16.5047 7.84049 16.1402 7.23349 16.1962 6.84127C16.2523 6.44906 16.5794 6.25295 16.4019 6.0475Z" fill="url(#paint13_linear_4_2256)"/>
<path style="mix-blend-mode:multiply" d="M16.1963 8.03657C14.8524 8.17965 13.4991 8.214 12.1496 8.13929C10.7465 8.13679 9.34609 8.0181 7.96266 7.78443C7.91482 7.74858 7.87927 7.69881 7.86086 7.64197C7.84246 7.58512 7.84212 7.52397 7.85987 7.46692C8.79445 7.5603 10.4299 7.66303 12.1122 7.70972C13.7944 7.75642 15.4486 7.70972 16.3178 7.70972C16.3294 7.7701 16.3242 7.83249 16.3028 7.89011C16.2813 7.94774 16.2445 7.9984 16.1963 8.03657Z" fill="url(#paint14_linear_4_2256)"/>
<path style="mix-blend-mode:screen" d="M16.1682 6.02882C15.9626 5.86072 14.7009 5.50586 12.1682 5.43115C9.63548 5.34711 8.35511 5.6366 8.14016 5.78601C7.92521 5.93543 8.33643 6.11286 8.32709 6.43037C8.31774 6.74788 7.94389 7.22415 8.22427 7.36423C9.53985 7.55459 10.867 7.65444 12.1962 7.66306C13.4735 7.72541 14.7536 7.70358 16.028 7.59769C16.3177 7.43893 15.9719 6.95333 15.9813 6.66384C15.9906 6.37434 16.3738 6.19691 16.1682 6.02882Z" fill="url(#paint15_linear_4_2256)"/>
<path style="mix-blend-mode:screen" d="M8.28967 5.75802C8.77675 5.56243 9.29745 5.46407 9.82237 5.46853C10.8224 5.46853 12.6261 5.46853 13 5.52456C13 5.52456 8.76631 6.07553 8.28967 5.75802Z" fill="url(#paint16_linear_4_2256)"/>
<path style="mix-blend-mode:multiply" opacity="0.6" d="M15.9066 6.16889C15.3862 5.94765 14.8343 5.80902 14.2711 5.758C13.0884 5.61566 11.893 5.61566 10.7103 5.758C12.4104 6.16496 14.1637 6.3036 15.9066 6.16889Z" fill="url(#paint17_linear_4_2256)"/>
<g style="mix-blend-mode:overlay">
<path d="M10.0935 0.528443C12.6169 0.425719 14.6823 0.873966 14.701 1.537C14.7197 2.20004 12.7104 2.82572 10.1963 2.92844C7.68232 3.03117 5.60755 2.58292 5.57951 1.91988C5.55147 1.25685 7.57015 0.631166 10.0935 0.528443Z" fill="white"/>
</g>
<g style="mix-blend-mode:overlay">
<path d="M9.03736 1.07004C10.4299 1.01401 11.5607 1.25681 11.5794 1.62102C11.5981 1.98522 10.4766 2.33074 9.09343 2.38678C7.71026 2.44281 6.57007 2.2 6.55138 1.8358C6.53269 1.4716 7.65418 1.12607 9.03736 1.07004Z" fill="white"/>
</g>
<g style="mix-blend-mode:overlay" opacity="0.5">
<path d="M10.7383 6.73851C10.8037 8.09259 10.2336 9.22255 9.44857 9.26925C8.66352 9.31594 7.98129 8.24201 7.90652 6.88792C7.83175 5.53384 8.4112 4.41321 9.19624 4.36652C9.98129 4.31983 10.6635 5.44045 10.7383 6.73851Z" fill="white"/>
</g>
<g style="mix-blend-mode:overlay" opacity="0.5">
<path d="M8.93455 13.3969C7.99997 15.6942 6.13082 17.1323 4.82241 16.5813C3.514 16.0304 3.17754 13.7798 4.11212 11.4358C5.0467 9.09184 6.91585 7.7004 8.22426 8.24204C9.53267 8.78367 9.86913 11.0903 8.93455 13.3969Z" fill="white"/>
</g>
<g style="mix-blend-mode:overlay" opacity="0.5">
<path d="M6.05609 14.7136C5.12151 17.0202 3.96264 18.7292 3.49535 18.5331C3.02806 18.337 3.39256 16.3199 4.32714 14.0132C5.26172 11.7066 6.42059 9.99768 6.88788 10.1938C7.35517 10.3899 6.99067 12.4164 6.05609 14.7136Z" fill="white"/>
</g>
<g style="mix-blend-mode:overlay" opacity="0.5">
<path d="M20.729 12.4723C22.0468 14.5829 22.7664 16.5159 22.3272 16.7867C21.8879 17.0576 20.458 15.5634 19.159 13.4529C17.8599 11.3424 17.1216 9.41865 17.5608 9.14784C18.0001 8.87702 19.3832 10.3618 20.729 12.4723Z" fill="white"/>
</g>
<g style="mix-blend-mode:multiply" opacity="0.3">
<path d="M12.1776 19.4482C16.6075 19.4482 20.1963 20.877 20.1869 22.5953C20.1776 24.3136 16.5794 25.7051 12.1589 25.6864C7.73832 25.6677 4.14021 24.2576 4.14955 22.53C4.1589 20.8023 7.74768 19.4482 12.1776 19.4482Z" fill="#823500"/>
</g>
<g style="mix-blend-mode:multiply" opacity="0.3">
<path d="M12.1776 22.0071C15.7664 22.0071 18.673 23.0063 18.6636 24.211C18.6543 25.4157 15.7477 26.3775 12.1216 26.3589C8.49539 26.3402 5.62622 25.3596 5.62622 24.155C5.62622 22.9503 8.58885 21.9884 12.1776 22.0071Z" fill="#823500"/>
</g>
<g style="mix-blend-mode:multiply" opacity="0.8">
<g style="mix-blend-mode:multiply" opacity="0.8">
<path d="M11.3084 22.558C9.86186 22.308 8.54352 21.5736 7.57007 20.4756C8.19655 19.8344 8.78927 19.1611 9.34579 18.4584C10.0486 19.131 10.9718 19.5258 11.9439 19.5697C12.3364 19.5697 12.6262 19.2615 12.5794 19.1308C12.1028 17.9261 8.57943 17.7487 8.84111 14.9565C8.98622 14.2302 9.32251 13.5557 9.81533 13.0026C10.3082 12.4494 10.9397 12.0375 11.6448 11.8094V10.5394L13.1589 10.4927C13.1589 10.9409 13.1589 11.1744 13.1589 11.632C14.315 11.782 15.3825 12.3302 16.1776 13.1822C15.8131 14.116 15.6075 14.5736 15.1589 15.5075C14.6377 15.0513 13.981 14.7789 13.2897 14.7324C12.9533 14.7324 12.7009 15.0592 12.757 15.1993C13.2617 16.46 16.6168 16.4133 17.0374 19.1028C17.3645 21.1946 15.2243 22.3713 13.4486 22.6141C13.4486 23.0997 13.4486 23.3425 13.4486 23.8281C12.514 23.8281 12.0561 23.8281 11.1308 23.7534C11.2897 23.2771 11.299 23.0343 11.3084 22.558Z" fill="#BF6E37"/>
</g>
</g>
<g style="mix-blend-mode:multiply" opacity="0.4">
<g style="mix-blend-mode:multiply" opacity="0.4">
<path d="M7.91585 20.5782C8.50955 19.9698 9.07105 19.3308 9.59809 18.6638C9.44855 18.5424 9.36444 18.4584 9.36444 18.4584C8.80792 19.161 8.21522 19.8343 7.58875 20.4755C8.3365 21.3929 9.3582 22.0473 10.5046 22.3432C9.48074 22.0346 8.57685 21.4183 7.91585 20.5782ZM11.3084 22.5673C11.3084 23.0436 11.3084 23.2771 11.3084 23.7533H11.6355C11.6355 23.3331 11.6355 23.0903 11.6355 22.642L11.3084 22.5673ZM9.19622 15.0965C9.34316 14.371 9.68011 13.6974 10.1727 13.1445C10.6652 12.5917 11.2958 12.1793 12 11.9494L12.0467 10.67H13.2336V10.558L11.7196 10.6047C11.7196 11.109 11.7196 11.3704 11.7196 11.8747C11.0144 12.1028 10.3829 12.5147 9.89008 13.0679C9.39726 13.621 9.06094 14.2955 8.91583 15.0218C8.63546 17.8234 12.1588 17.9821 12.6541 19.1961C12.7102 19.3269 12.4205 19.6444 12.028 19.635C11.7119 19.627 11.398 19.5799 11.0934 19.4949C11.485 19.6439 11.8989 19.7259 12.3177 19.7378C12.7196 19.7378 13.0093 19.4296 12.9532 19.2988C12.4392 18.0288 8.91585 17.8607 9.19622 15.0685V15.0965Z" fill="#BF6E37"/>
</g>
</g>
<defs>
<linearGradient id="paint0_linear_4_2256" x1="6.30839" y1="4.86146" x2="17.6262" y2="4.86146" gradientUnits="userSpaceOnUse">
<stop stop-color="#E0BB86"/>
<stop offset="0.15" stop-color="#FFDB9C"/>
<stop offset="0.74" stop-color="#BC7A4A"/>
<stop offset="1" stop-color="#E0BB86"/>
</linearGradient>
<linearGradient id="paint1_linear_4_2256" x1="11.9626" y1="-0.461493" x2="11.9626" y2="6.00076" gradientUnits="userSpaceOnUse">
<stop offset="0.39" stop-color="#FFDB9C"/>
<stop offset="1" stop-color="#BC7A4A"/>
</linearGradient>
<linearGradient id="paint2_linear_4_2256" x1="8452.92" y1="-847.876" x2="8972.69" y2="-847.876" gradientUnits="userSpaceOnUse">
<stop stop-color="#E0BB86"/>
<stop offset="0.15" stop-color="#FFDB9C"/>
<stop offset="0.74" stop-color="#BC7A4A"/>
<stop offset="1" stop-color="#E0BB86"/>
</linearGradient>
<linearGradient id="paint3_linear_4_2256" x1="12.1122" y1="10.5207" x2="12.1122" y2="27.386" gradientUnits="userSpaceOnUse">
<stop offset="0.15" stop-color="#FFDB9C"/>
<stop offset="0.75" stop-color="#BC7A4A"/>
<stop offset="0.92" stop-color="#E0BB86"/>
</linearGradient>
<linearGradient id="paint4_linear_4_2256" x1="12.1121" y1="29.1416" x2="12.1121" y2="19.8778" gradientUnits="userSpaceOnUse">
<stop offset="0.02" stop-color="#FFDB9C"/>
<stop offset="0.57" stop-color="#BC7A4A"/>
<stop offset="1" stop-color="#FFDB9C"/>
</linearGradient>
<linearGradient id="paint5_linear_4_2256" x1="9.45796" y1="16.9549" x2="3.12196" y2="15.5801" gradientUnits="userSpaceOnUse">
<stop offset="0.32" stop-color="#FFDB9C"/>
<stop offset="1" stop-color="#E0BB86"/>
</linearGradient>
<linearGradient id="paint6_linear_4_2256" x1="5014.06" y1="-989.394" x2="4832.49" y2="-725.757" gradientUnits="userSpaceOnUse">
<stop offset="0.15" stop-color="#FFDB9C"/>
<stop offset="0.75" stop-color="#BC7A4A"/>
<stop offset="0.92" stop-color="#E0BB86"/>
</linearGradient>
<linearGradient id="paint7_linear_4_2256" x1="18.3458" y1="8.38216" x2="8.00939" y2="8.38216" gradientUnits="userSpaceOnUse">
<stop stop-color="#FFDB9C"/>
<stop offset="1" stop-color="#BC7A4A"/>
</linearGradient>
<linearGradient id="paint8_linear_4_2256" x1="3303.82" y1="-51.5359" x2="3379.85" y2="-51.5359" gradientUnits="userSpaceOnUse">
<stop stop-color="#FFDB9C"/>
<stop offset="1" stop-color="#BC7A4A"/>
</linearGradient>
<linearGradient id="paint9_linear_4_2256" x1="2489.1" y1="-473.419" x2="2531.22" y2="-617.038" gradientUnits="userSpaceOnUse">
<stop offset="0.32" stop-color="#FFDB9C"/>
<stop offset="1" stop-color="#E0BB86"/>
</linearGradient>
<linearGradient id="paint10_linear_4_2256" x1="19.8528" y1="22.9525" x2="17.5155" y2="10.8811" gradientUnits="userSpaceOnUse">
<stop offset="0.15" stop-color="#FFDB9C"/>
<stop offset="1" stop-color="#BC7A4A"/>
</linearGradient>
<linearGradient id="paint11_linear_4_2256" x1="12.0094" y1="19.6724" x2="12.0094" y2="7.28021" gradientUnits="userSpaceOnUse">
<stop offset="0.73" stop-color="#FFDB9C"/>
<stop offset="0.93" stop-color="#BC7A4A"/>
</linearGradient>
<linearGradient id="paint12_linear_4_2256" x1="12.0001" y1="23.6132" x2="12.0001" y2="27.8529" gradientUnits="userSpaceOnUse">
<stop stop-color="#FF4F9C"/>
<stop offset="0.99" stop-color="#C946A6"/>
</linearGradient>
<linearGradient id="paint13_linear_4_2256" x1="7.81307" y1="6.73855" x2="16.4579" y2="6.73855" gradientUnits="userSpaceOnUse">
<stop stop-color="#E72921"/>
<stop offset="0.15" stop-color="#FF4D31"/>
<stop offset="0.74" stop-color="#A22921"/>
<stop offset="1" stop-color="#E72921"/>
</linearGradient>
<linearGradient id="paint14_linear_4_2256" x1="7.85051" y1="7.81244" x2="16.3178" y2="7.81244" gradientUnits="userSpaceOnUse">
<stop stop-color="#FF4D31"/>
<stop offset="0.24" stop-color="#FF4D31"/>
<stop offset="0.74" stop-color="#A22921"/>
<stop offset="1" stop-color="#E72921"/>
</linearGradient>
<linearGradient id="paint15_linear_4_2256" x1="10.6546" y1="6.54991" x2="18.8673" y2="6.54991" gradientUnits="userSpaceOnUse">
<stop stop-color="#FF4D31"/>
<stop offset="0.15" stop-color="#FF4D31"/>
<stop offset="0.53" stop-color="#A22921"/>
</linearGradient>
<linearGradient id="paint16_linear_4_2256" x1="8.28967" y1="5.6553" x2="13" y2="5.6553" gradientUnits="userSpaceOnUse">
<stop stop-color="#FF4D31"/>
<stop offset="0.15" stop-color="#FF829F"/>
<stop offset="0.53" stop-color="#A22921"/>
</linearGradient>
<linearGradient id="paint17_linear_4_2256" x1="10.7103" y1="5.93543" x2="15.9066" y2="5.93543" gradientUnits="userSpaceOnUse">
<stop offset="0.14" stop-color="#FF4D31"/>
<stop offset="0.61" stop-color="#A22921"/>
<stop offset="1" stop-color="#E72921"/>
</linearGradient>
</defs>
</svg>
