<svg width="32" height="33" viewBox="0 0 32 33" fill="none" xmlns="http://www.w3.org/2000/svg">
<path d="M26.4201 8.06007C22.8101 7.71007 18.1401 10.2101 14.7001 14.7001C11.2601 19.1901 10.0501 24.3501 11.3201 27.7001L11.0401 28.6001L13.5401 30.1501C17.1801 32.6801 23.3101 30.4201 27.7001 24.7001C32.0901 18.9801 32.6 12.4201 29.22 9.56007L27.5401 7.82007L26.4201 8.06007Z" fill="url(#paint0_linear_4_2329)"/>
<path d="M27.61 7.85999L29.29 9.57998C29.8793 10.1076 30.3585 10.7465 30.7 11.46L28.32 9.05998L25.68 11.22L31.42 15.7C31.2206 18.058 30.4852 20.3394 29.27 22.37L26.59 20.32L23.65 24.15L26.4 26.26C24.7773 28.0717 22.777 29.5053 20.54 30.46L15.71 26.63L13.54 29.46L16.26 31.12C15.3283 31.0293 14.4343 30.7061 13.66 30.18L11.14 28.68L11.43 27.78C10.15 24.39 11.36 19.23 14.8 14.78C18.24 10.33 22.92 7.77998 26.53 8.13998L27.61 7.85999Z" fill="url(#paint1_linear_4_2329)"/>
<path style="mix-blend-mode:multiply" opacity="0.3" d="M26.33 23.58C22.06 29.21 15.8301 31.34 12.0601 29.1901C15.8601 30.73 21.5001 28.27 25.4301 23.12C29.8501 17.33 30.4301 10.33 26.7501 7.48005C26.542 7.32411 26.325 7.18053 26.1001 7.05005C26.5712 7.24071 27.0151 7.4929 27.4201 7.80005C31.1101 10.63 30.91 17.5201 26.33 23.58Z" fill="url(#paint2_linear_4_2329)"/>
<path style="mix-blend-mode:multiply" opacity="0.3" d="M26.4301 8.06007C22.8201 7.71007 18.1501 10.2101 14.7101 14.7001C11.2701 19.1901 10.0601 24.3501 11.3301 27.7001L11.0501 28.6001L13.5401 30.1501C17.1801 32.6801 23.3201 30.4201 27.7001 24.7001C32.0801 18.9801 32.6001 12.4201 29.2201 9.56007L27.5401 7.82007L26.4301 8.06007Z" fill="url(#paint3_linear_4_2329)"/>
<path d="M25.8845 23.2719C30.3517 17.4481 30.95 10.408 27.2208 7.54748C23.4916 4.68698 16.8471 7.08929 12.3799 12.9132C7.91264 18.7371 7.31439 25.7771 11.0436 28.6376C14.7728 31.4981 21.4173 29.0958 25.8845 23.2719Z" fill="url(#paint4_linear_4_2329)"/>
<path d="M12.7101 25.2101L10.55 28.2101L11.05 28.6501C11.9041 29.2926 12.917 29.6901 13.9801 29.8001L14.69 26.3001C14.1387 26.185 13.6197 25.9493 13.1701 25.6101C13.006 25.4896 12.8521 25.3558 12.7101 25.2101Z" fill="url(#paint5_linear_4_2329)"/>
<path d="M11.6101 20.9L8.61007 21.99C8.51718 23.0417 8.59142 24.1015 8.83005 25.13L11.6801 23.21C11.5289 22.4492 11.5053 21.6686 11.6101 20.9Z" fill="url(#paint6_linear_4_2329)"/>
<path d="M23.1 6.38C22.3128 6.41409 21.5332 6.54851 20.78 6.78001L20.54 9.91001C21.0282 9.76166 21.5312 9.66776 22.04 9.63L23.1 6.38Z" fill="url(#paint7_linear_4_2329)"/>
<path d="M19.08 25.48L18.76 29.02C20.9558 28.0518 22.9246 26.6347 24.54 24.86L22.68 22.64C21.6562 23.7908 20.4375 24.7522 19.08 25.48Z" fill="url(#paint8_linear_4_2329)"/>
<path d="M26.36 15.48C26.1075 17.0511 25.5541 18.5587 24.73 19.92L27.45 20.97C28.6593 18.9229 29.4068 16.6362 29.64 14.27L26.36 15.48Z" fill="url(#paint9_linear_4_2329)"/>
<path d="M25.6601 11.2801L28.9101 9.65008C28.5203 8.8378 27.9448 8.12867 27.2301 7.58008C27.0605 7.4422 26.8799 7.31846 26.6901 7.21008L24.3401 10.0801C24.5171 10.1736 24.6845 10.2841 24.8401 10.4101C25.1604 10.6519 25.4376 10.9461 25.6601 11.2801Z" fill="url(#paint10_linear_4_2329)"/>
<path d="M12.7001 17.1201L13.7001 15.3L11.3501 14.3C10.6976 15.3388 10.1451 16.437 9.70007 17.58L12.7001 17.18V17.1201Z" fill="url(#paint11_linear_4_2329)"/>
<path d="M14.36 10.6701L15.93 12.6701L17.74 11.2201L17.37 8.31006C16.2814 8.98141 15.2717 9.77305 14.36 10.6701Z" fill="url(#paint12_linear_4_2329)"/>
<g style="mix-blend-mode:overlay" opacity="0.5">
<path d="M24.96 10.49C27.52 12.49 26.96 17.49 23.75 21.65C20.54 25.81 15.84 27.65 13.29 25.71C10.74 23.77 11.29 18.71 14.5 14.55C17.71 10.39 22.41 8.57999 24.96 10.49Z" fill="white"/>
</g>
<path d="M23.6155 21.5349C26.839 17.3324 27.3812 12.337 24.8264 10.3773C22.2716 8.41767 17.5873 10.2358 14.3638 14.4383C11.1403 18.6408 10.5982 23.6362 13.153 25.5959C15.7078 27.5555 20.392 25.7374 23.6155 21.5349Z" fill="url(#paint13_linear_4_2329)"/>
<path style="mix-blend-mode:screen" opacity="0.3" d="M25.2 11.4C27.2 13.11 26.29 17.59 23.1 21.4C19.91 25.21 15.65 26.93 13.61 25.22C11.57 23.51 12.5199 19.04 15.7199 15.22C18.9199 11.4 23.16 9.70003 25.2 11.4Z" fill="url(#paint14_linear_4_2329)"/>
<g style="mix-blend-mode:multiply" opacity="0.5">
<path d="M15.18 15.0401C12.24 18.8701 11.56 23.3001 13.67 24.9201C15.78 26.5401 19.89 24.7401 22.83 20.9201C25.77 17.1001 26.45 12.6601 24.34 11.0401C22.23 9.42009 18.12 11.2001 15.18 15.0401ZM22.08 20.3301C19.49 23.7001 15.95 25.3301 14.18 23.9801C12.41 22.6301 13.07 18.7801 15.66 15.4101C18.25 12.0401 21.79 10.4101 23.56 11.7501C25.33 13.0901 24.67 16.9501 22.08 20.3301Z" fill="#4C0000"/>
</g>
<path d="M13.2801 22.4801L12.55 23.0201C12.6881 23.7655 13.0847 24.4383 13.6701 24.9201C13.7949 25.0162 13.9289 25.1 14.0701 25.1701L14.3201 24.0801L14.1801 23.9801C13.7132 23.6013 13.3946 23.0703 13.2801 22.4801ZM15.1801 15.0401C14.6609 15.7079 14.2024 16.4207 13.8101 17.1701L14.4201 17.3301C14.7787 16.6564 15.1935 16.0141 15.66 15.4101C16.0101 14.9572 16.3839 14.5233 16.7801 14.1101L16.3801 13.6501C15.9517 14.0881 15.5509 14.5524 15.1801 15.0401ZM21.9501 10.4501V11.2701C22.5391 11.2335 23.1225 11.4032 23.6001 11.7501C23.9512 12.0283 24.2178 12.3988 24.3701 12.8201L25.3701 12.3501C25.1855 11.8259 24.8561 11.3647 24.4201 11.0201C24.0668 10.766 23.6664 10.5847 23.2423 10.4868C22.8183 10.389 22.379 10.3765 21.9501 10.4501ZM22.9501 19.1401C22.7001 19.5401 22.4301 19.9301 22.1301 20.3301C21.3445 21.3609 20.415 22.2735 19.3701 23.0401L19.6801 24.0401C20.9041 23.1826 21.9842 22.1363 22.8801 20.9401C23.1847 20.5544 23.4652 20.1503 23.72 19.7301L22.9501 19.1401Z" fill="url(#paint15_linear_4_2329)"/>
<g style="mix-blend-mode:overlay" opacity="0.5">
<path d="M24.64 10.34L24.8601 10.53C22.26 8.84002 17.76 10.68 14.63 14.75C11.5 18.82 10.9 23.66 13.2 25.75L12.97 25.59C10.41 23.59 10.97 18.59 14.18 14.43C17.39 10.27 22.09 8.39002 24.64 10.34Z" fill="white"/>
</g>
<path d="M24.83 10.38L25.04 10.57C22.45 8.88003 17.94 10.71 14.82 14.79C11.7 18.87 11.08 23.7 13.38 25.79L13.15 25.62C10.6 23.67 11.15 18.67 14.36 14.47C17.57 10.27 22.27 8.42003 24.83 10.38Z" fill="url(#paint16_linear_4_2329)"/>
<path style="mix-blend-mode:overlay" d="M25.8845 23.2719C30.3517 17.4481 30.95 10.408 27.2208 7.54748C23.4916 4.68698 16.8471 7.08929 12.3799 12.9132C7.91264 18.7371 7.31439 25.7771 11.0436 28.6376C14.7728 31.4981 21.4173 29.0958 25.8845 23.2719Z" fill="url(#paint17_linear_4_2329)"/>
<path style="mix-blend-mode:screen" opacity="0.4" d="M26.9 7.57998C30.56 10.39 29.98 17.3 25.59 23.02C21.2001 28.74 14.68 31.09 11.02 28.28C7.36004 25.47 7.95004 18.56 12.33 12.85C16.71 7.13998 23.24 4.80998 26.9 7.57998Z" fill="url(#paint18_linear_4_2329)"/>
<path style="mix-blend-mode:multiply" opacity="0.3" d="M31.05 18.18C31.05 18.09 31.1 18 31.12 17.91C31.14 17.82 31.12 17.78 31.12 17.72C31.12 17.66 31.18 17.47 31.2 17.34C31.2981 16.8242 31.3682 16.3034 31.41 15.78V15.73C31.5365 14.2783 31.2886 12.8185 30.69 11.49C30.3696 10.7709 29.9109 10.1219 29.34 9.57999L27.65 7.85999C27.5468 7.75883 27.4366 7.66525 27.32 7.57999C25.32 6.03999 22.44 6.02999 19.53 7.26999C16.7143 8.50268 14.27 10.4505 12.44 12.92C10.6265 15.2147 9.40717 17.9213 8.88997 20.8C8.35997 23.8 8.88997 26.58 10.67 28.25L11.17 28.69C11.5162 28.9477 11.8882 29.1689 12.28 29.35L13.72 30.2C14.4513 30.6983 15.2915 31.0138 16.17 31.12C17.6588 31.2666 19.1608 31.0398 20.54 30.46C21.6014 30.0382 22.6085 29.491 23.54 28.83L23.68 28.73C23.88 28.59 24.07 28.44 24.26 28.29L24.52 28.08L24.88 27.77L25.14 27.58L25.67 27.08C25.74 27.01 25.82 26.94 25.89 26.86C25.96 26.78 26.18 26.57 26.32 26.42L26.44 26.3C26.9086 25.8014 27.3493 25.2773 27.76 24.73C28.329 23.993 28.8469 23.2178 29.31 22.41C29.9867 21.2508 30.5238 20.0155 30.91 18.73C30.96 18.51 31.01 18.35 31.05 18.18Z" fill="url(#paint19_linear_4_2329)"/>
<g style="mix-blend-mode:overlay" opacity="0.7">
<path d="M17.09 7.12C21.09 4.82 25.41 4.75 26.68 6.97C27.95 9.19 25.68 12.87 21.68 15.17C17.68 17.47 13.36 17.54 12.08 15.32C10.8 13.1 13.06 9.43 17.09 7.12Z" fill="white"/>
</g>
<g style="mix-blend-mode:overlay" opacity="0.5">
<path d="M17.9001 23.84C21.3101 21.89 24.9001 21.84 26.0201 23.72C27.1401 25.6 25.2101 28.72 21.8001 30.66C18.3901 32.6 14.8001 32.66 13.6801 30.78C12.5601 28.9 14.5401 25.79 17.9001 23.84Z" fill="white"/>
</g>
<g style="mix-blend-mode:screen" opacity="0.6">
<path d="M19.6601 26.9501C20.8001 26.3001 21.9501 26.1801 22.2401 26.6801C22.5301 27.1801 21.8401 28.1201 20.7001 28.7701C19.5601 29.4201 18.4201 29.5401 18.1301 29.0301C17.8401 28.5201 18.5401 27.5801 19.6601 26.9501Z" fill="white"/>
</g>
<g style="mix-blend-mode:screen" opacity="0.5">
<path d="M17.65 7.11006C19.8 5.88006 21.78 5.29006 22.06 5.79006C22.34 6.29006 20.84 7.69006 18.69 8.92006C16.54 10.1501 14.5701 10.7501 14.2801 10.2401C13.9901 9.73006 15.54 8.34006 17.65 7.11006Z" fill="white"/>
</g>
<g style="mix-blend-mode:screen" opacity="0.4">
<path d="M17.94 7.58008C21.48 5.58008 25.29 5.58008 26.46 7.58008C27.63 9.58008 25.71 12.9101 22.17 14.9401C18.63 16.9701 14.82 16.9401 13.65 14.9401C12.48 12.9401 14.4 9.58008 17.94 7.58008Z" fill="#FF8366"/>
</g>
<path style="mix-blend-mode:multiply" opacity="0.7" d="M21.75 14.3101L20.56 16.6501L21.56 18.2201L19.26 18.6601L17.54 20.8101L17.3 18.7501L15.24 18.5101L17.39 16.7901L17.84 14.4901L19.41 15.4901L21.75 14.3101Z" fill="url(#paint20_linear_4_2329)"/>
<g opacity="0.5">
<g opacity="0.5">
<path style="mix-blend-mode:multiply" opacity="0.7" d="M17.3 18.75L17.56 20.81L17.93 20.35L17.7801 19.11L17.3 18.75Z" fill="url(#paint21_linear_4_2329)"/>
</g>
<g opacity="0.5">
<path style="mix-blend-mode:multiply" opacity="0.7" d="M19.41 15.5001L17.83 14.4901L17.39 16.7901L15.24 18.5101L16.04 18.6001L17.86 17.1601L18.3 14.8501L19.87 15.8601L21.34 15.1201L21.75 14.3101L19.41 15.5001Z" fill="url(#paint22_linear_4_2329)"/>
</g>
</g>
<g style="mix-blend-mode:screen" opacity="0.3">
<path d="M17.54 20.81L19.26 18.66L21.56 18.22L19.41 18.88L17.54 20.81Z" fill="#FB221D"/>
</g>
<g style="mix-blend-mode:screen" opacity="0.3">
<path d="M20.5601 16.6501L21.7501 14.3101L20.7801 16.6501L21.2801 17.7801L20.5601 16.6501Z" fill="#FB221D"/>
</g>
<g style="mix-blend-mode:color">
<path d="M30.6901 11.46C30.3453 10.7486 29.8666 10.1102 29.2801 9.58002L27.6001 7.86003C27.497 7.75887 27.3867 7.66529 27.2701 7.58002C26.3305 6.87498 25.203 6.46434 24.0301 6.40002H23.2001C21.9026 6.46246 20.6279 6.7642 19.4401 7.29002C16.6244 8.52272 14.1802 10.4705 12.3501 12.94C10.538 15.2367 9.31574 17.9421 8.79008 20.82C8.27008 23.82 8.79008 26.6 10.5701 28.27L11.0701 28.71C11.4163 28.9678 11.7883 29.1889 12.1801 29.37L13.5401 30.18C14.2714 30.6783 15.1116 30.9938 15.9901 31.1C16.3446 31.1486 16.7022 31.1719 17.0601 31.17H17.5901H17.7401H18.0601H18.3501H18.5001C19.1833 31.0483 19.8531 30.8608 20.5001 30.61C21.5615 30.1883 22.5687 29.6411 23.5001 28.98L23.6401 28.88C23.8401 28.74 24.0301 28.59 24.2201 28.44L24.4801 28.23L24.8401 27.92L25.1001 27.71L25.6301 27.21L25.8501 26.99C26.0001 26.85 26.1401 26.7 26.2801 26.55L26.4001 26.43C26.8501 25.94 27.3001 25.43 27.7201 24.86C28.2892 24.123 28.807 23.3479 29.2701 22.54C29.9468 21.3808 30.4839 20.1456 30.8701 18.86C30.9201 18.7 30.9701 18.54 31.0101 18.37C31.0287 18.2789 31.0521 18.1887 31.0801 18.1C31.0801 18.04 31.0801 17.97 31.0801 17.91C31.0801 17.85 31.1401 17.66 31.1601 17.53C31.2582 17.0142 31.3283 16.4934 31.3701 15.97V15.92C31.5483 14.3993 31.3134 12.8586 30.6901 11.46Z" fill="#3E6CFF"/>
</g>
<path style="mix-blend-mode:multiply" opacity="0.7" d="M31.36 13.7501L29.85 12.6701V12.7201C29.7527 13.311 29.6191 13.8955 29.45 14.4701C29.45 14.6101 29.36 14.7501 29.32 14.8901L29.25 15.1001L29.15 15.4001C29.09 15.5801 29.02 15.7601 28.95 15.9401C28.4076 17.3504 27.7029 18.6927 26.85 19.9401C26.2743 20.8061 25.6394 21.6314 24.95 22.4101C24.4515 22.9831 23.9241 23.5305 23.37 24.0501L23.22 24.1801L22.72 24.6301L22.46 24.8601L21.84 25.3601L21.55 25.5801L21.13 25.8901L20.83 26.1001L20.17 26.5401L20.01 26.6301C18.9663 27.285 17.8441 27.8058 16.67 28.1801H16.62C15.9235 28.3992 15.2065 28.5467 14.48 28.6201H14.32H14H13.54H12.97C12.5921 28.5877 12.2175 28.5241 11.85 28.4301C10.9183 28.2177 10.0551 27.774 9.34004 27.1401L7.91003 26.0201C7.506 25.7802 7.13317 25.4914 6.80003 25.1601C6.62712 24.9884 6.46672 24.8046 6.32003 24.6101C4.66003 22.5301 4.32004 19.3801 5.25004 15.9901C5.3826 15.4445 5.54619 14.907 5.74003 14.3801L6.93003 14.7301L11.16 8.68006C14.7523 7.55491 18.4315 6.72876 22.16 6.21006C23.1372 6.06833 24.1334 6.13494 25.083 6.40553C26.0327 6.67611 26.9143 7.14455 27.67 7.78006C28.5918 8.65317 29.4633 9.578 30.28 10.5501C30.8869 11.5168 31.257 12.6132 31.36 13.7501Z" fill="url(#paint23_linear_4_2329)"/>
<path style="mix-blend-mode:multiply" opacity="0.7" d="M24.65 21.43C20.65 27.08 14.75 29.73 11.35 27.36C7.94998 24.99 8.34998 18.48 12.35 12.83C16.35 7.17998 22.25 4.52998 25.65 6.90998C29.05 9.28998 28.59 15.79 24.65 21.43Z" fill="url(#paint24_linear_4_2329)"/>
<path d="M22.24 5.45002C18.64 5.10002 13.96 7.60002 10.52 12.09C7.07997 16.58 5.86998 21.73 7.14998 25.09L6.85999 25.99L9.37997 27.58C13.01 30.1 19.15 27.85 23.54 22.13C27.93 16.41 28.44 9.84002 25.06 6.99002L23.38 5.27002L22.24 5.45002Z" fill="url(#paint25_linear_4_2329)"/>
<path d="M23.4401 5.23999L25.1201 6.95999C25.7119 7.49154 26.1943 8.13356 26.5401 8.84999L24.1501 6.44999L21.5401 8.57999L27.2801 13.06C27.0757 15.4139 26.3406 17.6909 25.1301 19.72L22.4501 17.67L19.4801 21.58L22.2301 23.69C20.5918 25.5064 18.5742 26.9403 16.3201 27.89L11.5401 24.02L9.37006 26.84L12.0901 28.5C11.1388 28.4283 10.2223 28.1114 9.43005 27.58L6.91005 26.08L7.19005 25.18C5.92005 21.78 7.13005 16.62 10.5701 12.18C14.0101 7.73999 18.6801 5.17999 22.2901 5.53999L23.4401 5.23999Z" fill="url(#paint26_linear_4_2329)"/>
<path style="mix-blend-mode:multiply" opacity="0.3" d="M22.16 20.9501C17.89 26.5801 11.66 28.7101 7.89001 26.5801C11.68 28.1201 17.32 25.6601 21.26 20.5001C25.67 14.7101 26.26 7.71006 22.58 4.87006C22.3725 4.70836 22.1518 4.56451 21.92 4.44006C22.3954 4.62839 22.8429 4.88072 23.25 5.19006C26.94 8.02006 26.74 14.9001 22.16 20.9501Z" fill="url(#paint27_linear_4_2329)"/>
<path style="mix-blend-mode:multiply" opacity="0.3" d="M22.26 5.45002C18.65 5.10002 13.98 7.60002 10.53 12.09C7.08004 16.58 5.88003 21.73 7.16003 25.09L6.87004 25.99L9.39004 27.58C13.02 30.1 19.16 27.85 23.55 22.13C27.94 16.41 28.45 9.84002 25.07 6.99002L23.38 5.27002L22.26 5.45002Z" fill="url(#paint28_linear_4_2329)"/>
<path d="M23.04 4.94C26.77 7.8 26.17 14.84 21.71 20.67C17.25 26.5 10.59 28.89 6.86005 26.03C3.13005 23.17 3.73004 16.13 8.20004 10.3C12.67 4.46999 19.31 2.08 23.04 4.94Z" fill="url(#paint29_linear_4_2329)"/>
<path d="M8.54001 22.5801L6.38 25.5801C6.53717 25.7372 6.70418 25.8842 6.88 26.0201C7.7306 26.6636 8.73971 27.0645 9.8 27.1801L10.52 23.6701C9.96662 23.5613 9.4462 23.325 9.00002 22.9801C8.8335 22.8627 8.67936 22.7287 8.54001 22.5801Z" fill="url(#paint30_linear_4_2329)"/>
<path d="M7.42997 18.29L4.42997 19.38C4.33331 20.4284 4.40761 21.4855 4.64997 22.51L7.53997 20.58C7.3777 19.8279 7.34054 19.0542 7.42997 18.29Z" fill="url(#paint31_linear_4_2329)"/>
<path d="M18.9201 3.76001C18.1334 3.79905 17.3544 3.93336 16.6001 4.16001L16.3201 7.30001C16.8077 7.14763 17.3108 7.05036 17.8201 7.01001L18.9201 3.76001Z" fill="url(#paint32_linear_4_2329)"/>
<path d="M14.9101 22.86L14.5901 26.41C16.7972 25.4464 18.7768 24.029 20.4001 22.25L18.5401 20.03C17.505 21.1785 16.2764 22.1364 14.9101 22.86Z" fill="url(#paint33_linear_4_2329)"/>
<path d="M22.19 12.86C21.9241 14.4337 21.3643 15.9434 20.54 17.31L23.25 18.36C24.4608 16.3128 25.2115 14.0265 25.45 11.66L22.19 12.86Z" fill="url(#paint34_linear_4_2329)"/>
<path d="M21.54 8.66009L24.78 7.04009C24.3944 6.22523 23.8223 5.51266 23.11 4.96009C22.93 4.83009 22.75 4.70009 22.57 4.59009L20.22 7.46009C20.3926 7.56073 20.5596 7.6709 20.72 7.79009C21.0353 8.03737 21.3118 8.33065 21.54 8.66009Z" fill="url(#paint35_linear_4_2329)"/>
<path d="M8.54004 14.5101L9.54004 12.6901L7.18004 11.6901C6.53933 12.7128 5.99052 13.7904 5.54004 14.9101L8.54004 14.5101Z" fill="url(#paint36_linear_4_2329)"/>
<path d="M10.1901 8.05004L11.7601 10.05L13.5401 8.58004L13.1701 5.67004C12.097 6.35801 11.0983 7.15563 10.1901 8.05004Z" fill="url(#paint37_linear_4_2329)"/>
<g style="mix-blend-mode:overlay" opacity="0.5">
<path d="M20.79 7.87008C23.34 9.87008 22.79 14.8701 19.58 19.0301C16.37 23.1901 11.67 25.0301 9.11003 23.0901C6.55003 21.1501 7.11002 16.0901 10.33 11.9401C13.55 7.79008 18.23 5.92008 20.79 7.87008Z" fill="white"/>
</g>
<path d="M20.65 7.77001C23.21 9.77001 22.65 14.77 19.44 18.93C16.23 23.09 11.53 24.93 8.97998 22.99C6.42998 21.05 6.97997 15.99 10.19 11.83C13.4 7.67001 18.1 5.81001 20.65 7.77001Z" fill="url(#paint38_linear_4_2329)"/>
<path style="mix-blend-mode:screen" opacity="0.3" d="M21.02 8.79C23.02 10.49 22.12 14.97 18.92 18.79C15.72 22.61 11.48 24.32 9.44 22.62C7.4 20.92 8.35001 16.43 11.54 12.62C14.73 8.81 18.99 7.08 21.02 8.79Z" fill="url(#paint39_linear_4_2329)"/>
<g style="mix-blend-mode:multiply" opacity="0.5">
<path d="M11.0101 12.42C8.06007 16.26 7.39008 20.68 9.50008 22.3C11.6101 23.92 15.7101 22.13 18.6601 18.3C21.6101 14.47 22.2801 10.03 20.1601 8.40999C18.0401 6.78999 13.9501 8.57999 11.0101 12.42ZM17.9001 17.71C15.3101 21.09 11.7801 22.71 10.0101 21.37C8.24007 20.03 8.90007 16.17 11.4901 12.79C14.0801 9.40998 17.6201 7.78998 19.3901 9.13998C21.1601 10.49 20.5401 14.33 17.9001 17.71Z" fill="#4C0000"/>
</g>
<path d="M9.11002 19.8601L8.38 20.4101C8.52306 21.1605 8.93564 21.8327 9.54001 22.3001C9.66142 22.3961 9.79206 22.4798 9.93001 22.5501L10.19 21.4701L10.05 21.3701C9.56693 20.9946 9.23363 20.4592 9.11002 19.8601ZM11.01 12.4201C10.4907 13.1004 10.0291 13.8229 9.63 14.5801L10.24 14.7401C10.6229 14.0578 11.0575 13.4059 11.54 12.7901C11.8847 12.336 12.2588 11.905 12.66 11.5001L12.25 11.0301C11.8106 11.4694 11.3966 11.9335 11.01 12.4201ZM17.77 7.84005V8.66005C18.3594 8.62006 18.944 8.79011 19.42 9.14005C19.7712 9.41184 20.0353 9.78025 20.18 10.2001L21.18 9.74005C20.9849 9.20518 20.6372 8.73928 20.18 8.40005C19.8351 8.15241 19.4446 7.97545 19.0309 7.87934C18.6173 7.78323 18.1888 7.76988 17.77 7.84005ZM18.77 16.5201C18.52 16.9201 18.24 17.32 17.94 17.71C17.1659 18.7474 16.2386 19.6612 15.19 20.4201L15.5 21.4201C16.7193 20.5608 17.7986 19.5185 18.7 18.3301C19 17.9301 19.28 17.5201 19.54 17.1201L18.77 16.5201Z" fill="url(#paint40_linear_4_2329)"/>
<g style="mix-blend-mode:overlay" opacity="0.5">
<path d="M20.47 7.73003L20.69 7.91003C18.09 6.23003 13.59 8.06003 10.46 12.14C7.33 16.22 6.73001 21.04 9.03001 23.14L8.79001 22.98C6.24001 20.98 6.79001 16.03 10.01 11.82C13.23 7.61003 17.92 5.77003 20.47 7.73003Z" fill="white"/>
</g>
<path d="M20.6501 7.76999L20.8701 7.94999C18.2701 6.26999 13.7701 8.09999 10.6401 12.18C7.51006 16.26 6.91005 21.08 9.21005 23.18C9.12951 23.1325 9.05263 23.079 8.98005 23.02C6.42005 21.02 6.98004 16.02 10.19 11.86C13.4 7.69999 18.1 5.80999 20.6501 7.76999Z" fill="url(#paint41_linear_4_2329)"/>
<path style="mix-blend-mode:overlay" d="M23.04 4.94C26.77 7.8 26.17 14.84 21.71 20.67C17.25 26.5 10.59 28.89 6.86005 26.03C3.13005 23.17 3.73004 16.13 8.20004 10.3C12.67 4.46999 19.31 2.08 23.04 4.94Z" fill="url(#paint42_linear_4_2329)"/>
<path style="mix-blend-mode:screen" opacity="0.4" d="M22.73 4.99999C26.39 7.80999 25.8 14.72 21.42 20.44C17.04 26.16 10.54 28.52 6.85004 25.71C3.16004 22.9 3.77004 15.99 8.16004 10.27C12.55 4.54999 19.07 2.19999 22.73 4.99999Z" fill="url(#paint43_linear_4_2329)"/>
<path style="mix-blend-mode:multiply" opacity="0.3" d="M26.88 15.5801L26.94 15.3101C26.94 15.2401 26.94 15.1801 26.94 15.1201C26.94 15.0601 26.99 14.8601 27.02 14.7301C27.1272 14.2124 27.1974 13.6877 27.23 13.1601C27.3574 11.7084 27.1095 10.2483 26.51 8.92007C26.1671 8.20449 25.6882 7.56254 25.1 7.03007L23.42 5.31007L23.09 5.04007C21.09 3.49007 18.21 3.49007 15.3 4.72007C12.4828 5.95035 10.038 7.89861 8.20996 10.3701C6.40065 12.6685 5.17873 15.3732 4.64996 18.2501C4.12996 21.2501 4.69996 24.0301 6.42996 25.7101C6.58713 25.8672 6.75413 26.0142 6.92996 26.1501C7.27376 26.4114 7.64615 26.6328 8.03996 26.8101L9.47996 27.6701C10.2156 28.1671 11.0587 28.4824 11.94 28.5901C13.4471 28.7594 14.9724 28.539 16.37 27.9501C17.4314 27.5283 18.4385 26.9811 19.37 26.3201L19.51 26.2201C19.7 26.0801 19.9 25.9401 20.09 25.7801C20.28 25.6201 20.26 25.6401 20.35 25.5701L20.71 25.2701L20.96 25.0501C21.14 24.8901 21.32 24.7301 21.49 24.5601L21.72 24.3401L22.15 23.9001L22.27 23.7701C22.7233 23.2767 23.1633 22.7567 23.59 22.2101C24.1558 21.4672 24.6735 20.689 25.14 19.8801C25.8105 18.7177 26.3472 17.4832 26.74 16.2001C26.79 15.8901 26.83 15.7301 26.88 15.5801Z" fill="url(#paint44_linear_4_2329)"/>
<g style="mix-blend-mode:overlay" opacity="0.7">
<path d="M12.9101 4.51007C16.9101 2.20007 21.2301 2.13007 22.5101 4.36007C23.7901 6.59007 21.5101 10.2501 17.5101 12.5601C13.5101 14.8701 9.19009 14.9301 7.92009 12.7001C6.65009 10.4701 8.89008 6.81007 12.9101 4.51007Z" fill="white"/>
</g>
<g style="mix-blend-mode:overlay" opacity="0.5">
<path d="M13.73 21.23C17.13 19.23 20.73 19.23 21.85 21.1C22.97 22.97 21.03 26.1 17.63 28.04C14.23 29.98 10.63 30.04 9.50998 28.17C8.38998 26.3 10.32 23.18 13.73 21.23Z" fill="white"/>
</g>
<g style="mix-blend-mode:screen" opacity="0.6">
<path d="M15.5401 24.3301C16.6701 23.6901 17.8301 23.5701 18.1101 24.0701C18.3901 24.5701 17.71 25.5001 16.58 26.1501C15.45 26.8001 14.3001 26.9201 14.0101 26.4201C13.7201 25.9201 14.3601 24.9801 15.5401 24.3301Z" fill="white"/>
</g>
<g style="mix-blend-mode:screen" opacity="0.5">
<path d="M13.48 4.49006C15.63 3.26006 17.6 2.67006 17.89 3.17006C18.18 3.67006 16.67 5.08006 14.52 6.31006C12.37 7.54006 10.4 8.13006 10.11 7.63006C9.82001 7.13006 11.33 5.72006 13.48 4.49006Z" fill="white"/>
</g>
<g style="mix-blend-mode:screen" opacity="0.4">
<path d="M13.77 4.96008C17.3 2.96008 21.12 2.96008 22.29 4.96008C23.46 6.96008 21.54 10.3001 18 12.3201C14.46 14.3401 10.64 14.3201 9.48002 12.3201C8.32002 10.3201 10.23 6.99008 13.77 4.96008Z" fill="#FF8366"/>
</g>
<path style="mix-blend-mode:multiply" opacity="0.7" d="M17.5701 11.7001L16.3901 14.0301L17.3901 15.6101L15.0901 16.0401L13.3701 18.2001L13.1301 16.1301L11.0601 15.8901L13.2201 14.1801L13.6601 11.8701L15.2301 12.8801L17.5701 11.7001Z" fill="url(#paint45_linear_4_2329)"/>
<g opacity="0.5">
<g opacity="0.5">
<path style="mix-blend-mode:multiply" opacity="0.7" d="M13.13 16.1301L13.38 18.2001L13.75 17.7401L13.61 16.4901L13.13 16.1301Z" fill="url(#paint46_linear_4_2329)"/>
</g>
<g opacity="0.5">
<path style="mix-blend-mode:multiply" opacity="0.7" d="M15.2301 12.8801L13.6601 11.8701L13.2201 14.1801L11.0601 15.8901L11.8701 15.9801L13.6801 14.5401L14.1301 12.2401L15.7001 13.2401L17.1601 12.5001L17.5701 11.7001L15.2301 12.8801Z" fill="url(#paint47_linear_4_2329)"/>
</g>
</g>
<g style="mix-blend-mode:screen" opacity="0.3">
<path d="M13.37 18.2L15.09 16.04L17.39 15.61L15.23 16.26L13.37 18.2Z" fill="#FB221D"/>
</g>
<g style="mix-blend-mode:screen" opacity="0.3">
<path d="M16.39 14.0301L17.57 11.7001L16.61 14.0301L17.11 15.1601L16.39 14.0301Z" fill="#FB221D"/>
</g>
<g style="mix-blend-mode:color">
<path d="M26.54 8.85004C26.1972 8.13446 25.7182 7.49251 25.13 6.96004L23.45 5.24004L23.12 4.97004C22.1787 4.26816 21.0522 3.85788 19.88 3.79004H19.05C17.7529 3.84771 16.4779 4.14611 15.29 4.67004C12.4728 5.90032 10.028 7.84858 8.19998 10.32C6.35731 12.591 5.10051 15.2797 4.53997 18.15C4.01997 21.15 4.58997 23.93 6.31997 25.61C6.47714 25.7672 6.64414 25.9141 6.81997 26.05C7.16378 26.3114 7.53617 26.5328 7.92997 26.71L9.36998 27.57C10.1049 28.0684 10.9484 28.3838 11.83 28.49C12.184 28.5438 12.542 28.5673 12.9 28.56H13.43H13.54H13.86H14.15H14.31C14.994 28.4419 15.6641 28.2543 16.31 28C17.3714 27.5783 18.3786 27.0311 19.31 26.37L19.45 26.27C19.64 26.13 19.84 25.99 20.03 25.83C20.22 25.67 20.2 25.69 20.29 25.62L20.65 25.32L20.9 25.1C21.08 24.94 21.26 24.78 21.43 24.61L21.66 24.39L22.09 23.95L22.21 23.82C22.6566 23.3267 23.0966 22.8067 23.53 22.26C24.096 21.5195 24.6106 20.741 25.07 19.93C25.7415 18.7695 26.2751 17.5345 26.66 16.25C26.66 16.08 26.75 15.92 26.8 15.76L26.86 15.49C26.86 15.42 26.86 15.36 26.91 15.3C26.96 15.24 26.91 15.04 26.99 14.91C27.0972 14.3924 27.1674 13.8677 27.2 13.34C27.391 11.8112 27.1628 10.2592 26.54 8.85004Z" fill="#3E6CFF"/>
</g>
<path style="mix-blend-mode:multiply" opacity="0.7" d="M27.17 10.9201L25.65 9.84005C25.5561 10.4341 25.4259 11.0219 25.26 11.6C25.26 11.75 25.18 11.89 25.13 12.0301L25.07 12.24L24.96 12.54C24.9 12.72 24.84 12.9 24.76 13.08C24.2095 14.4867 23.5052 15.8282 22.66 17.08C22.0775 17.9439 21.4395 18.769 20.75 19.55C20.2573 20.1221 19.7332 20.6663 19.18 21.18L19.04 21.3001L18.54 21.76L18.27 21.99L17.66 22.49L17.36 22.7101C17.22 22.8201 17.09 22.92 16.94 23.0201L16.64 23.23L15.98 23.67L15.82 23.76C14.7765 24.409 13.6583 24.9294 12.49 25.31H12.44C11.7435 25.5292 11.0264 25.6766 10.3 25.75H10.13H9.81996H9.31996H8.74997C8.37257 25.7136 7.99827 25.6501 7.62996 25.56C6.69589 25.3485 5.8317 24.9009 5.11996 24.26L3.67996 23.1401C3.28107 22.8972 2.9119 22.6085 2.57995 22.2801C2.40112 22.1111 2.23719 21.9271 2.08996 21.73C0.429962 19.65 0.08996 16.4901 1.00996 13.1101C1.14996 12.5801 1.30997 12.0401 1.49997 11.5001L2.69996 11.85L6.92996 5.85005C10.5737 4.8714 14.2786 4.13645 18.02 3.65005C18.972 3.49945 19.9451 3.55356 20.8746 3.80876C21.804 4.06397 22.6683 4.51441 23.41 5.13005C24.2 5.88005 25.28 7.02005 25.93 7.73005C26.6239 8.66183 27.0524 9.76422 27.17 10.9201Z" fill="url(#paint48_linear_4_2329)"/>
<path style="mix-blend-mode:multiply" opacity="0.7" d="M20.3801 18.67C16.3801 24.31 10.4801 26.96 7.08008 24.59C3.68008 22.22 4.08008 15.71 8.08008 10.06C12.0801 4.41002 17.9801 1.77002 21.3801 4.14002C24.7801 6.51002 24.3201 13.02 20.3801 18.67Z" fill="url(#paint49_linear_4_2329)"/>
<path d="M17.88 2.72007C14.27 2.37007 9.60001 4.87008 6.16001 9.36007C2.72001 13.8501 1.51002 19.0101 2.78002 22.3601L2.50002 23.2601L5.02001 24.7601C8.66001 27.2801 14.8 25.0301 19.18 19.3101C23.56 13.5901 24.08 7.02007 20.7 4.17007L19.01 2.45007L17.88 2.72007Z" fill="url(#paint50_linear_4_2329)"/>
<path d="M19.0701 2.51001L20.7601 4.24001C21.3494 4.76761 21.8286 5.40653 22.1701 6.12001L19.7801 3.72001L17.1401 5.88001L22.8801 10.36C22.6806 12.718 21.9453 14.9994 20.7301 17.03L18.0501 14.97L15.1101 18.8L17.8601 20.91C16.2283 22.7337 14.2089 24.1688 11.9501 25.11L7.12009 21.29L4.95009 24.12L7.67009 25.77C6.73733 25.684 5.84217 25.3604 5.07009 24.83L2.54009 23.34L2.82009 22.44C1.54009 19.04 2.75009 13.88 6.20009 9.44001C9.65009 5.00001 14.3101 2.44001 17.9201 2.81001L19.0701 2.51001Z" fill="url(#paint51_linear_4_2329)"/>
<path style="mix-blend-mode:multiply" opacity="0.3" d="M17.79 18.2201C13.54 23.8501 7.29004 25.9801 3.54004 23.8301C7.33004 25.3701 12.97 22.9101 16.9 17.7501C21.32 11.9601 21.9 4.96006 18.22 2.12006C18.012 1.96413 17.7949 1.82055 17.57 1.69006C18.0412 1.88073 18.4851 2.13292 18.89 2.44006C22.54 5.29006 22.38 12.1701 17.79 18.2201Z" fill="url(#paint52_linear_4_2329)"/>
<path style="mix-blend-mode:multiply" opacity="0.3" d="M17.89 2.71998C14.28 2.36998 9.61003 4.86998 6.17003 9.35998C2.73003 13.85 1.52003 19.01 2.79003 22.36L2.51003 23.26L5.03003 24.76C8.67003 27.28 14.81 25.03 19.19 19.31C23.57 13.59 24.1 7.01998 20.71 4.16998L19.04 2.47998L17.89 2.71998Z" fill="url(#paint53_linear_4_2329)"/>
<path d="M18.68 2.21006C22.41 5.07006 21.81 12.1101 17.34 17.9401C12.87 23.7701 6.23004 26.1601 2.54004 23.3001C-1.14996 20.4401 -0.599961 13.4001 3.87004 7.58006C8.34004 1.76006 14.94 -0.649942 18.68 2.21006Z" fill="url(#paint54_linear_4_2329)"/>
<path d="M4.17001 19.87L2.01001 22.87C2.17076 23.024 2.34109 23.1676 2.52 23.3C3.36858 23.947 4.37873 24.3483 5.44 24.46L6.15001 20.96C5.59664 20.8455 5.07675 20.606 4.63 20.26C4.46396 20.1458 4.30986 20.0151 4.17001 19.87Z" fill="url(#paint55_linear_4_2329)"/>
<path d="M3.07 15.5801L0.069999 16.6701C-0.0218288 17.7185 0.0524195 18.7748 0.29 19.8001L3.14001 17.8901C2.98885 17.1293 2.96518 16.3486 3.07 15.5801Z" fill="url(#paint56_linear_4_2329)"/>
<path d="M14.5401 1.03003C13.754 1.07399 12.9755 1.2082 12.2201 1.43003L11.9501 4.58003C12.437 4.42693 12.9407 4.33292 13.4501 4.30003L14.5401 1.03003Z" fill="url(#paint57_linear_4_2329)"/>
<path d="M10.54 20.14L10.21 23.68C12.4201 22.7166 14.403 21.2993 16.03 19.5201L14.18 17.3C13.1372 18.4471 11.9062 19.4076 10.54 20.14Z" fill="url(#paint58_linear_4_2329)"/>
<path d="M17.8201 10.1401C17.5676 11.7112 17.0141 13.2188 16.1901 14.5801L18.9101 15.6301C20.1177 13.5814 20.8681 11.2958 21.1101 8.93005L17.8201 10.1401Z" fill="url(#paint59_linear_4_2329)"/>
<path d="M17.1201 5.92999L20.3701 4.30999C19.9806 3.49469 19.4052 2.78223 18.69 2.23C18.5179 2.09859 18.3376 1.97834 18.1501 1.87L15.8 4.73999C15.9766 4.83579 16.147 4.94267 16.3101 5.05999C16.6225 5.30736 16.8956 5.6007 17.1201 5.92999Z" fill="url(#paint60_linear_4_2329)"/>
<path d="M4.15999 11.7801L5.15999 9.96008L2.81 8.96008C2.14542 9.98769 1.57956 11.0759 1.12 12.2101L4.12 11.8001L4.15999 11.7801Z" fill="url(#paint61_linear_4_2329)"/>
<path d="M5.82007 5.32997L7.40007 7.32997L9.20007 5.87997L8.83006 2.96997C7.74402 3.64502 6.73474 4.43635 5.82007 5.32997Z" fill="url(#paint62_linear_4_2329)"/>
<g style="mix-blend-mode:overlay" opacity="0.5">
<path d="M16.42 5.15002C18.98 7.15002 18.42 12.15 15.21 16.3C12 20.45 7.3 22.3 4.75 20.37C2.2 18.44 2.74999 13.37 5.95999 9.21002C9.16999 5.05002 13.87 3.19002 16.42 5.15002Z" fill="white"/>
</g>
<path d="M16.29 5.04007C18.84 7.04007 18.29 12.0401 15.07 16.2001C11.85 20.3601 7.17006 22.2001 4.61006 20.2601C2.05006 18.3201 2.61005 13.3101 5.82005 9.10007C9.03005 4.89007 13.73 3.08007 16.29 5.04007Z" fill="url(#paint63_linear_4_2329)"/>
<path style="mix-blend-mode:screen" opacity="0.3" d="M16.66 6.06002C18.66 7.77002 17.76 12.25 14.56 16.06C11.36 19.87 7.11001 21.6 5.08001 19.89C3.05001 18.18 3.98001 13.7 7.18001 9.89002C10.38 6.08002 14.62 4.35002 16.66 6.06002Z" fill="url(#paint64_linear_4_2329)"/>
<g style="mix-blend-mode:multiply" opacity="0.5">
<path d="M6.64008 9.68999C3.70008 13.53 3.02007 17.96 5.13007 19.58C7.24007 21.2 11.3501 19.4 14.2901 15.58C17.2301 11.76 17.9101 7.31999 15.8001 5.69999C13.6901 4.07999 9.59008 5.84999 6.64008 9.68999ZM13.5401 14.98C10.9501 18.36 7.41008 19.98 5.64008 18.64C3.87008 17.3 4.53008 13.44 7.12008 10.06C9.71008 6.67999 13.2501 5.05999 15.0201 6.40999C16.7901 7.75999 16.1301 11.58 13.5401 14.98Z" fill="#4C0000"/>
</g>
<path d="M4.75003 17.13L4.02002 17.68C4.15296 18.425 4.54638 19.0984 5.13002 19.58C5.2573 19.6727 5.39097 19.7562 5.53003 19.83L5.78003 18.74L5.64003 18.64C5.17086 18.2606 4.85475 17.7243 4.75003 17.13ZM6.64003 9.69004C6.12871 10.3634 5.67065 11.0755 5.27002 11.82L5.88002 11.98C6.24461 11.3098 6.65912 10.668 7.12003 10.06C7.47051 9.60779 7.84786 9.17701 8.25003 8.77004L7.84003 8.31003C7.4117 8.74461 7.01092 9.20551 6.64003 9.69004ZM13.41 5.11004V5.93004C13.9996 5.88828 14.5848 6.05851 15.06 6.41003C15.414 6.68125 15.6815 7.04952 15.83 7.47003L16.83 7.01004C16.6348 6.47797 16.287 6.01532 15.83 5.68004C15.4846 5.42938 15.0927 5.2499 14.6773 5.15205C14.2618 5.0542 13.831 5.03991 13.41 5.11004ZM14.36 13.79C14.11 14.19 13.84 14.59 13.54 14.98C12.7572 16.0161 11.8274 16.9324 10.78 17.7L11.1 18.65C12.3146 17.7965 13.3906 16.7611 14.29 15.58C14.5924 15.1927 14.8728 14.7887 15.13 14.37L14.36 13.79Z" fill="url(#paint65_linear_4_2329)"/>
<g style="mix-blend-mode:overlay" opacity="0.5">
<path d="M16.11 5.00004L16.32 5.18004C13.73 3.50004 9.21999 5.33004 6.09999 9.41004C2.98 13.49 2.35999 18.31 4.65999 20.41L4.43 20.24C1.87 18.24 2.43 13.29 5.64 9.08004C8.85 4.87004 13.54 3.04004 16.11 5.00004Z" fill="white"/>
</g>
<path d="M16.29 5.04008L16.51 5.22008C13.91 3.54008 9.39998 5.37008 6.27998 9.45008C3.15998 13.5301 2.53998 18.3501 4.83998 20.4501L4.60999 20.2801C2.05999 18.2801 2.60998 13.3301 5.81998 9.12008C9.02998 4.91008 13.73 3.08008 16.29 5.04008Z" fill="url(#paint66_linear_4_2329)"/>
<path style="mix-blend-mode:overlay" d="M18.68 2.21006C22.41 5.07006 21.81 12.1101 17.34 17.9401C12.87 23.7701 6.23004 26.1601 2.54004 23.3001C-1.14996 20.4401 -0.599961 13.4001 3.87004 7.58006C8.34004 1.76006 14.94 -0.649942 18.68 2.21006Z" fill="url(#paint67_linear_4_2329)"/>
<path style="mix-blend-mode:screen" opacity="0.4" d="M18.36 2.28004C22.03 5.09004 21.44 12 17.05 17.71C12.66 23.42 6.14999 25.79 2.47999 22.98C-1.19001 20.17 -0.590015 13.26 3.78999 7.54004C8.16998 1.82004 14.7 -0.529959 18.36 2.28004Z" fill="url(#paint68_linear_4_2329)"/>
<path style="mix-blend-mode:multiply" opacity="0.3" d="M22.54 12.84C22.5442 12.7534 22.5442 12.6666 22.54 12.58C22.54 12.51 22.54 12.45 22.54 12.39C22.54 12.33 22.6 12.13 22.62 12C22.7181 11.4808 22.7882 10.9567 22.83 10.43C22.9556 8.97936 22.7114 7.52055 22.12 6.18999C21.7785 5.47651 21.2993 4.83759 20.71 4.30999L19.02 2.57999L18.7 2.30999C16.7 0.769987 13.82 0.759987 10.9 1.98999C8.10067 3.21243 5.66513 5.13812 3.82997 7.57999C2.01646 9.87843 0.797205 12.5883 0.279983 15.47C-0.250017 18.47 0.279982 21.24 2.05998 22.92C2.22073 23.0739 2.39107 23.2176 2.56998 23.35C2.9064 23.6169 3.27619 23.8387 3.66998 24.01L5.10999 24.87C5.83905 25.3725 6.68033 25.6884 7.55998 25.79C9.06717 25.9653 10.594 25.7447 11.99 25.15H12.04C13.1006 24.7265 14.1076 24.1794 15.04 23.52C15.0905 23.4925 15.1375 23.4589 15.18 23.42L15.76 22.99L16.02 22.78L16.39 22.47L16.64 22.25L17.17 21.76L17.39 21.54L17.82 21.1L17.94 20.97C18.4061 20.4727 18.8467 19.952 19.26 19.41C19.8291 18.673 20.3469 17.8978 20.81 17.09C21.4852 15.93 22.0221 14.6949 22.41 13.41C22.42 13.17 22.47 13 22.54 12.84Z" fill="url(#paint69_linear_4_2329)"/>
<g style="mix-blend-mode:overlay" opacity="0.7">
<path d="M8.54006 1.78003C12.5401 -0.529965 16.8601 -0.589967 18.1301 1.63003C19.4001 3.85003 17.1301 7.52003 13.1301 9.83003C9.13006 12.14 4.81006 12.2 3.53006 9.98003C2.25006 7.76003 4.54006 4.08003 8.54006 1.78003Z" fill="white"/>
</g>
<g style="mix-blend-mode:overlay" opacity="0.5">
<path d="M9.36006 18.5001C12.7701 16.5001 16.3601 16.5001 17.4801 18.3701C18.6001 20.2401 16.6701 23.3701 13.2601 25.3101C9.85005 27.2501 6.26006 27.3101 5.14006 25.4401C4.02006 23.5701 5.96006 20.4501 9.36006 18.5001Z" fill="white"/>
</g>
<g style="mix-blend-mode:screen" opacity="0.6">
<path d="M11.13 21.5801C12.26 20.9301 13.41 20.8101 13.7 21.3101C13.99 21.8101 13.3 22.7401 12.17 23.3901C11.04 24.0401 9.88 24.1601 9.59 23.6601C9.3 23.1601 9.98999 22.2601 11.13 21.5801Z" fill="white"/>
</g>
<path style="mix-blend-mode:multiply" opacity="0.7" d="M13.2101 8.97009L12.0201 11.3101L13.0301 12.8801L10.7201 13.3101L9.00007 15.4701L8.77007 13.4001L6.70007 13.1601L8.86007 11.4501L9.30007 9.14009L10.8701 10.1501L13.2101 8.97009Z" fill="url(#paint70_linear_4_2329)"/>
<g opacity="0.5">
<g opacity="0.5">
<path style="mix-blend-mode:multiply" opacity="0.7" d="M8.77002 13.4001L9.02002 15.4701L9.39002 15.0101L9.24002 13.7701L8.77002 13.4001Z" fill="url(#paint71_linear_4_2329)"/>
</g>
<g opacity="0.5">
<path style="mix-blend-mode:multiply" opacity="0.7" d="M10.8701 10.1501L9.29007 9.14009L8.86007 11.4501L6.70007 13.1601L7.50007 13.2601L9.32007 11.8101L9.76007 9.51009L11.3301 10.5201L12.8001 9.77009L13.2101 8.97009L10.8701 10.1501Z" fill="url(#paint72_linear_4_2329)"/>
</g>
</g>
<g style="mix-blend-mode:screen" opacity="0.3">
<path d="M9 15.47L10.72 13.31L13.03 12.88L10.87 13.53L9 15.47Z" fill="#FB221D"/>
</g>
<g style="mix-blend-mode:screen" opacity="0.3">
<path d="M12.02 11.3101L13.21 8.97009L12.24 11.3101L12.74 12.4301L12.02 11.3101Z" fill="#FB221D"/>
</g>
<g style="mix-blend-mode:color">
<path d="M22.15 6.12006C21.814 5.40593 21.3379 4.7666 20.75 4.24006L19.06 2.51006L18.73 2.24006C17.7933 1.53686 16.6695 1.12632 15.5 1.06006H14.66C13.3638 1.12359 12.0898 1.42175 10.9 1.94006C8.06217 3.16319 5.59375 5.10758 3.74002 7.58006C1.92651 9.8785 0.707239 12.5884 0.190018 15.4701C-0.339982 18.4701 0.190016 21.2401 1.97002 22.9201C2.13002 23.0701 2.30002 23.2201 2.47002 23.3501C2.81139 23.615 3.18422 23.8367 3.58002 24.0101L5.02002 24.8701C5.74909 25.3726 6.59036 25.6885 7.47002 25.7901C7.82407 25.8436 8.18202 25.867 8.54002 25.8601H9.07002H9.22002H9.54002L9.83002 25.8101H9.98003C10.6635 25.6848 11.3332 25.494 11.98 25.2401C13.0406 24.8166 14.0476 24.2695 14.98 23.6101C15.0306 23.5825 15.0776 23.5489 15.12 23.5101L15.7 23.0801L15.96 22.8701L16.33 22.5601L16.58 22.3401L17.11 21.8501L17.33 21.6301L17.76 21.1901L17.88 21.0601C18.3462 20.5628 18.7868 20.0421 19.2 19.5001C19.7691 18.7631 20.287 17.9879 20.75 17.1801C21.4252 16.0201 21.9622 14.785 22.35 13.5001C22.4 13.3401 22.45 13.1701 22.49 13.0101C22.53 12.8501 22.54 12.8301 22.56 12.7401C22.58 12.6501 22.56 12.6101 22.56 12.5501C22.56 12.4901 22.62 12.2901 22.64 12.1601C22.7381 11.6409 22.8082 11.1168 22.85 10.5901C23.0248 9.06418 22.7829 7.51946 22.15 6.12006Z" fill="#3E6CFF"/>
</g>
<g style="mix-blend-mode:overlay" opacity="0.3">
<path d="M22.25 5.84C21.9052 5.12853 21.4265 4.49021 20.84 3.96L19.15 2.24C19.045 2.14408 18.9348 2.05395 18.82 1.97C17.8722 1.24644 16.7303 0.821701 15.54 0.75H14.7C13.4057 0.803957 12.1332 1.10255 10.95 1.63C8.13287 2.86028 5.68806 4.80855 3.86002 7.28C2.04405 9.57435 0.821341 12.2808 0.300003 15.16C-0.229997 18.16 0.300002 20.94 2.08 22.61C2.2349 22.7695 2.40208 22.9166 2.58 23.05C2.92478 23.3099 3.297 23.5312 3.69 23.71L5.13 24.57C5.86495 25.0684 6.7084 25.3838 7.59001 25.49C7.94119 25.5389 8.29545 25.5623 8.65001 25.56C8.82987 25.5699 9.01014 25.5699 9.19 25.56H9.33H9.65001H9.94H10.09C10.7735 25.4397 11.4434 25.2521 12.09 25C13.1504 24.576 14.1573 24.029 15.09 23.37C15.1325 23.3311 15.1795 23.2975 15.23 23.27L15.81 22.83L16.07 22.62L16.43 22.32L16.68 22.1L17.21 21.61L17.44 21.38L17.87 20.94L17.99 20.82C18.44 20.33 18.88 19.82 19.31 19.25C19.8759 18.5129 20.3905 17.7377 20.85 16.93C21.5287 15.7718 22.0659 14.5363 22.45 13.25C22.5 13.08 22.54 12.92 22.58 12.75C22.608 12.6613 22.6314 12.5712 22.65 12.48C22.65 12.42 22.65 12.36 22.65 12.29C22.65 12.22 22.7 12.04 22.73 11.91C22.8379 11.3958 22.9081 10.8744 22.94 10.35V10.3C23.1151 8.77834 22.8767 7.23762 22.25 5.84Z" fill="#5AD0FF"/>
</g>
<defs>
<linearGradient id="paint0_linear_4_2329" x1="21.1301" y1="7.86007" x2="21.1301" y2="31.3001" gradientUnits="userSpaceOnUse">
<stop stop-color="#FF4E31"/>
<stop offset="0.03" stop-color="#A82E22"/>
<stop offset="1" stop-color="#890000"/>
</linearGradient>
<linearGradient id="paint1_linear_4_2329" x1="19.44" y1="7.11999" x2="22.5" y2="32.6" gradientUnits="userSpaceOnUse">
<stop stop-color="#B7B7B7"/>
<stop offset="1" stop-color="#777777"/>
</linearGradient>
<linearGradient id="paint2_linear_4_2329" x1="28.9001" y1="8.04005" x2="15.9301" y2="32.97" gradientUnits="userSpaceOnUse">
<stop stop-color="#999898"/>
<stop offset="0.19" stop-color="#999898"/>
<stop offset="0.55" stop-color="#00004A"/>
<stop offset="1" stop-color="#999898"/>
</linearGradient>
<linearGradient id="paint3_linear_4_2329" x1="28.6801" y1="8.38007" x2="13.9401" y2="30.7401" gradientUnits="userSpaceOnUse">
<stop stop-color="white"/>
<stop offset="0.74"/>
<stop offset="1" stop-color="white"/>
</linearGradient>
<linearGradient id="paint4_linear_4_2329" x1="14.1235" y1="10.6155" x2="23.3635" y2="24.4255" gradientUnits="userSpaceOnUse">
<stop stop-color="#FF4E31"/>
<stop offset="0.34" stop-color="#FF332E"/>
<stop offset="0.81" stop-color="#A40C0B"/>
<stop offset="1" stop-color="#C91C19"/>
</linearGradient>
<linearGradient id="paint5_linear_4_2329" x1="8.16005" y1="14.2001" x2="14.86" y2="33.8501" gradientUnits="userSpaceOnUse">
<stop stop-color="#DDDDDD"/>
<stop offset="1" stop-color="#A9A8A8"/>
</linearGradient>
<linearGradient id="paint6_linear_4_2329" x1="433.789" y1="-72.583" x2="469.213" y2="3.8108" gradientUnits="userSpaceOnUse">
<stop stop-color="#DDDDDD"/>
<stop offset="1" stop-color="#A9A8A8"/>
</linearGradient>
<linearGradient id="paint7_linear_4_2329" x1="408.84" y1="-89.5654" x2="438.656" y2="-26.1167" gradientUnits="userSpaceOnUse">
<stop stop-color="#DDDDDD"/>
<stop offset="1" stop-color="#A9A8A8"/>
</linearGradient>
<linearGradient id="paint8_linear_4_2329" x1="861.657" y1="-138.008" x2="907.792" y2="-15.3646" gradientUnits="userSpaceOnUse">
<stop stop-color="#DDDDDD"/>
<stop offset="1" stop-color="#A9A8A8"/>
</linearGradient>
<linearGradient id="paint9_linear_4_2329" x1="779.79" y1="-172.593" x2="836.003" y2="-51.7136" gradientUnits="userSpaceOnUse">
<stop stop-color="#DDDDDD"/>
<stop offset="1" stop-color="#A9A8A8"/>
</linearGradient>
<linearGradient id="paint10_linear_4_2329" x1="734.882" y1="-108.663" x2="759.702" y2="-26.8865" gradientUnits="userSpaceOnUse">
<stop stop-color="#DDDDDD"/>
<stop offset="1" stop-color="#A9A8A8"/>
</linearGradient>
<linearGradient id="paint11_linear_4_2329" x1="570.26" y1="-61.9272" x2="588.916" y2="4.83342" gradientUnits="userSpaceOnUse">
<stop stop-color="#DDDDDD"/>
<stop offset="1" stop-color="#A9A8A8"/>
</linearGradient>
<linearGradient id="paint12_linear_4_2329" x1="507.703" y1="-101.649" x2="542.948" y2="-21.5164" gradientUnits="userSpaceOnUse">
<stop stop-color="#DDDDDD"/>
<stop offset="1" stop-color="#A9A8A8"/>
</linearGradient>
<linearGradient id="paint13_linear_4_2329" x1="16.7537" y1="14.8491" x2="22.2037" y2="22.5091" gradientUnits="userSpaceOnUse">
<stop stop-color="#D53128"/>
<stop offset="1" stop-color="#890000"/>
</linearGradient>
<linearGradient id="paint14_linear_4_2329" x1="20.1016" y1="19.3359" x2="20.3507" y2="29.2965" gradientUnits="userSpaceOnUse">
<stop stop-color="white"/>
<stop offset="1" stop-color="#FF4E31"/>
</linearGradient>
<linearGradient id="paint15_linear_4_2329" x1="1900.55" y1="-372.364" x2="1942.91" y2="-140.011" gradientUnits="userSpaceOnUse">
<stop stop-color="#DDDDDD"/>
<stop offset="1" stop-color="#A9A8A8"/>
</linearGradient>
<linearGradient id="paint16_linear_4_2329" x1="13.3" y1="27.65" x2="20.99" y2="8.55003" gradientUnits="userSpaceOnUse">
<stop stop-color="#4C0000"/>
<stop offset="0.94" stop-color="#A00902"/>
</linearGradient>
<linearGradient id="paint17_linear_4_2329" x1="23.3335" y1="33.5855" x2="19.6335" y2="19.9655" gradientUnits="userSpaceOnUse">
<stop stop-color="#EBEBEB"/>
<stop offset="1" stop-color="white"/>
</linearGradient>
<linearGradient id="paint18_linear_4_2329" x1="3164.46" y1="-71.9626" x2="3072.74" y2="-375.138" gradientUnits="userSpaceOnUse">
<stop stop-color="#EBEBEB"/>
<stop offset="1" stop-color="white"/>
</linearGradient>
<linearGradient id="paint19_linear_4_2329" x1="23.88" y1="7.12999" x2="17.38" y2="27.07" gradientUnits="userSpaceOnUse">
<stop stop-color="white"/>
<stop offset="0.74" stop-color="#770025"/>
<stop offset="0.94" stop-color="white"/>
</linearGradient>
<linearGradient id="paint20_linear_4_2329" x1="18.81" y1="20.4301" x2="18.45" y2="15.9101" gradientUnits="userSpaceOnUse">
<stop stop-color="#9A425E"/>
<stop offset="1" stop-color="#770025"/>
</linearGradient>
<linearGradient id="paint21_linear_4_2329" x1="28.4574" y1="61.4126" x2="27.696" y2="58.502" gradientUnits="userSpaceOnUse">
<stop stop-color="#9A425E"/>
<stop offset="1" stop-color="#770025"/>
</linearGradient>
<linearGradient id="paint22_linear_4_2329" x1="136.586" y1="92.431" x2="135.934" y2="80.2023" gradientUnits="userSpaceOnUse">
<stop stop-color="#9A425E"/>
<stop offset="1" stop-color="#770025"/>
</linearGradient>
<linearGradient id="paint23_linear_4_2329" x1="4.70004" y1="17.4901" x2="31.36" y2="17.4901" gradientUnits="userSpaceOnUse">
<stop stop-color="#003DB6"/>
<stop offset="1" stop-color="#003D95"/>
</linearGradient>
<linearGradient id="paint24_linear_4_2329" x1="2735.4" y1="-711.027" x2="2383.07" y2="-387.205" gradientUnits="userSpaceOnUse">
<stop stop-color="#003DB6"/>
<stop offset="1" stop-color="#003D95"/>
</linearGradient>
<linearGradient id="paint25_linear_4_2329" x1="3024.58" y1="-725.779" x2="3024.58" y2="-179.067" gradientUnits="userSpaceOnUse">
<stop stop-color="#FF4E31"/>
<stop offset="0.03" stop-color="#A82E22"/>
<stop offset="1" stop-color="#890000"/>
</linearGradient>
<linearGradient id="paint26_linear_4_2329" x1="2985.54" y1="-740.941" x2="3065.66" y2="-150.369" gradientUnits="userSpaceOnUse">
<stop stop-color="#B7B7B7"/>
<stop offset="1" stop-color="#777777"/>
</linearGradient>
<linearGradient id="paint27_linear_4_2329" x1="2773.31" y1="-710.485" x2="2437.75" y2="-207.042" gradientUnits="userSpaceOnUse">
<stop stop-color="#999898"/>
<stop offset="0.19" stop-color="#999898"/>
<stop offset="0.55" stop-color="#00004A"/>
<stop offset="1" stop-color="#999898"/>
</linearGradient>
<linearGradient id="paint28_linear_4_2329" x1="3180.23" y1="-713.879" x2="2821.69" y2="-233.083" gradientUnits="userSpaceOnUse">
<stop stop-color="white"/>
<stop offset="0.74"/>
<stop offset="1" stop-color="white"/>
</linearGradient>
<linearGradient id="paint29_linear_4_2329" x1="2942.72" y1="-667.831" x2="3167.73" y2="-366.179" gradientUnits="userSpaceOnUse">
<stop stop-color="#FF4E31"/>
<stop offset="0.34" stop-color="#FF332E"/>
<stop offset="0.81" stop-color="#A40C0B"/>
<stop offset="1" stop-color="#C91C19"/>
</linearGradient>
<linearGradient id="paint30_linear_4_2329" x1="558.863" y1="-92.4199" x2="592.291" y2="-4.1387" gradientUnits="userSpaceOnUse">
<stop stop-color="#DDDDDD"/>
<stop offset="1" stop-color="#A9A8A8"/>
</linearGradient>
<linearGradient id="paint31_linear_4_2329" x1="422.25" y1="-85.9862" x2="457.225" y2="-9.39341" gradientUnits="userSpaceOnUse">
<stop stop-color="#DDDDDD"/>
<stop offset="1" stop-color="#A9A8A8"/>
</linearGradient>
<linearGradient id="paint32_linear_4_2329" x1="399.847" y1="-101.697" x2="429.505" y2="-37.7786" gradientUnits="userSpaceOnUse">
<stop stop-color="#DDDDDD"/>
<stop offset="1" stop-color="#A9A8A8"/>
</linearGradient>
<linearGradient id="paint33_linear_4_2329" x1="837.634" y1="-157.334" x2="883.59" y2="-34.5334" gradientUnits="userSpaceOnUse">
<stop stop-color="#DDDDDD"/>
<stop offset="1" stop-color="#A9A8A8"/>
</linearGradient>
<linearGradient id="paint34_linear_4_2329" x1="755.126" y1="-192.757" x2="811.339" y2="-71.8777" gradientUnits="userSpaceOnUse">
<stop stop-color="#DDDDDD"/>
<stop offset="1" stop-color="#A9A8A8"/>
</linearGradient>
<linearGradient id="paint35_linear_4_2329" x1="710.195" y1="-121.946" x2="735.06" y2="-40.2001" gradientUnits="userSpaceOnUse">
<stop stop-color="#DDDDDD"/>
<stop offset="1" stop-color="#A9A8A8"/>
</linearGradient>
<linearGradient id="paint36_linear_4_2329" x1="549.38" y1="-71.5791" x2="567.407" y2="-5.86724" gradientUnits="userSpaceOnUse">
<stop stop-color="#DDDDDD"/>
<stop offset="1" stop-color="#A9A8A8"/>
</linearGradient>
<linearGradient id="paint37_linear_4_2329" x1="485.154" y1="-116.269" x2="520.885" y2="-36.0782" gradientUnits="userSpaceOnUse">
<stop stop-color="#DDDDDD"/>
<stop offset="1" stop-color="#A9A8A8"/>
</linearGradient>
<linearGradient id="paint38_linear_4_2329" x1="2121.59" y1="-401.329" x2="2216.06" y2="-283.526" gradientUnits="userSpaceOnUse">
<stop stop-color="#D53128"/>
<stop offset="1" stop-color="#890000"/>
</linearGradient>
<linearGradient id="paint39_linear_4_2329" x1="1688.88" y1="-294.214" x2="1701.74" y2="-142.783" gradientUnits="userSpaceOnUse">
<stop stop-color="white"/>
<stop offset="1" stop-color="#FF4E31"/>
</linearGradient>
<linearGradient id="paint40_linear_4_2329" x1="1840.06" y1="-413.291" x2="1882.41" y2="-181.153" gradientUnits="userSpaceOnUse">
<stop stop-color="#DDDDDD"/>
<stop offset="1" stop-color="#A9A8A8"/>
</linearGradient>
<linearGradient id="paint41_linear_4_2329" x1="1878.26" y1="-179.963" x2="2018.92" y2="-471.337" gradientUnits="userSpaceOnUse">
<stop stop-color="#4C0000"/>
<stop offset="0.94" stop-color="#A00902"/>
</linearGradient>
<linearGradient id="paint42_linear_4_2329" x1="3136.62" y1="-127.901" x2="3041.48" y2="-442.801" gradientUnits="userSpaceOnUse">
<stop stop-color="#EBEBEB"/>
<stop offset="1" stop-color="white"/>
</linearGradient>
<linearGradient id="paint43_linear_4_2329" x1="3075.64" y1="-134.861" x2="2984.04" y2="-438.577" gradientUnits="userSpaceOnUse">
<stop stop-color="#EBEBEB"/>
<stop offset="1" stop-color="white"/>
</linearGradient>
<linearGradient id="paint44_linear_4_2329" x1="3405.19" y1="-791.866" x2="3232.73" y2="-305.741" gradientUnits="userSpaceOnUse">
<stop stop-color="white"/>
<stop offset="0.74" stop-color="#770025"/>
<stop offset="0.94" stop-color="white"/>
</linearGradient>
<linearGradient id="paint45_linear_4_2329" x1="106.366" y1="127.465" x2="104.03" y2="98.0845" gradientUnits="userSpaceOnUse">
<stop stop-color="#9A425E"/>
<stop offset="1" stop-color="#770025"/>
</linearGradient>
<linearGradient id="paint46_linear_4_2329" x1="21.5248" y1="53.5765" x2="20.7457" y2="50.6597" gradientUnits="userSpaceOnUse">
<stop stop-color="#9A425E"/>
<stop offset="1" stop-color="#770025"/>
</linearGradient>
<linearGradient id="paint47_linear_4_2329" x1="105.195" y1="78.4681" x2="104.545" y2="66.2251" gradientUnits="userSpaceOnUse">
<stop stop-color="#9A425E"/>
<stop offset="1" stop-color="#770025"/>
</linearGradient>
<linearGradient id="paint48_linear_4_2329" x1="3943.39" y1="-702.527" x2="3708.22" y2="-253.164" gradientUnits="userSpaceOnUse">
<stop stop-color="#003DB6"/>
<stop offset="1" stop-color="#003D95"/>
</linearGradient>
<linearGradient id="paint49_linear_4_2329" x1="2650.99" y1="-774.635" x2="2298.72" y2="-450.81" gradientUnits="userSpaceOnUse">
<stop stop-color="#003DB6"/>
<stop offset="1" stop-color="#003D95"/>
</linearGradient>
<linearGradient id="paint50_linear_4_2329" x1="2930.47" y1="-792.301" x2="2930.47" y2="-245.589" gradientUnits="userSpaceOnUse">
<stop stop-color="#FF4E31"/>
<stop offset="0.03" stop-color="#A82E22"/>
<stop offset="1" stop-color="#890000"/>
</linearGradient>
<linearGradient id="paint51_linear_4_2329" x1="2887.82" y1="-807.171" x2="2968.03" y2="-216.624" gradientUnits="userSpaceOnUse">
<stop stop-color="#B7B7B7"/>
<stop offset="1" stop-color="#777777"/>
</linearGradient>
<linearGradient id="paint52_linear_4_2329" x1="2686.53" y1="-776.29" x2="2350.72" y2="-272.902" gradientUnits="userSpaceOnUse">
<stop stop-color="#999898"/>
<stop offset="0.19" stop-color="#999898"/>
<stop offset="0.55" stop-color="#00004A"/>
<stop offset="1" stop-color="#999898"/>
</linearGradient>
<linearGradient id="paint53_linear_4_2329" x1="3086.52" y1="-779.364" x2="2728.58" y2="-298.448" gradientUnits="userSpaceOnUse">
<stop stop-color="white"/>
<stop offset="0.74"/>
<stop offset="1" stop-color="white"/>
</linearGradient>
<linearGradient id="paint54_linear_4_2329" x1="2839.33" y1="-734.611" x2="3064.45" y2="-433.519" gradientUnits="userSpaceOnUse">
<stop stop-color="#FF4E31"/>
<stop offset="0.34" stop-color="#FF332E"/>
<stop offset="0.81" stop-color="#A40C0B"/>
<stop offset="1" stop-color="#C91C19"/>
</linearGradient>
<linearGradient id="paint55_linear_4_2329" x1="536.401" y1="-107.411" x2="569.703" y2="-19.2734" gradientUnits="userSpaceOnUse">
<stop stop-color="#DDDDDD"/>
<stop offset="1" stop-color="#A9A8A8"/>
</linearGradient>
<linearGradient id="paint56_linear_4_2329" x1="398.652" y1="-100.217" x2="433.943" y2="-23.9452" gradientUnits="userSpaceOnUse">
<stop stop-color="#DDDDDD"/>
<stop offset="1" stop-color="#A9A8A8"/>
</linearGradient>
<linearGradient id="paint57_linear_4_2329" x1="382.682" y1="-114.416" x2="412.552" y2="-50.4698" gradientUnits="userSpaceOnUse">
<stop stop-color="#DDDDDD"/>
<stop offset="1" stop-color="#A9A8A8"/>
</linearGradient>
<linearGradient id="paint58_linear_4_2329" x1="809.239" y1="-177.481" x2="855.134" y2="-54.6289" gradientUnits="userSpaceOnUse">
<stop stop-color="#DDDDDD"/>
<stop offset="1" stop-color="#A9A8A8"/>
</linearGradient>
<linearGradient id="paint59_linear_4_2329" x1="730.773" y1="-213.778" x2="786.912" y2="-92.8112" gradientUnits="userSpaceOnUse">
<stop stop-color="#DDDDDD"/>
<stop offset="1" stop-color="#A9A8A8"/>
</linearGradient>
<linearGradient id="paint60_linear_4_2329" x1="687.317" y1="-135.439" x2="712.025" y2="-53.83" gradientUnits="userSpaceOnUse">
<stop stop-color="#DDDDDD"/>
<stop offset="1" stop-color="#A9A8A8"/>
</linearGradient>
<linearGradient id="paint61_linear_4_2329" x1="532.783" y1="-83.9249" x2="550.968" y2="-17.626" gradientUnits="userSpaceOnUse">
<stop stop-color="#DDDDDD"/>
<stop offset="1" stop-color="#A9A8A8"/>
</linearGradient>
<linearGradient id="paint62_linear_4_2329" x1="470.3" y1="-130.315" x2="505.547" y2="-50.1369" gradientUnits="userSpaceOnUse">
<stop stop-color="#DDDDDD"/>
<stop offset="1" stop-color="#A9A8A8"/>
</linearGradient>
<linearGradient id="paint63_linear_4_2329" x1="2085.47" y1="-403.929" x2="2115.72" y2="-283.619" gradientUnits="userSpaceOnUse">
<stop stop-color="#D53128"/>
<stop offset="1" stop-color="#890000"/>
</linearGradient>
<linearGradient id="paint64_linear_4_2329" x1="1622.84" y1="-335.48" x2="1635.54" y2="-184.018" gradientUnits="userSpaceOnUse">
<stop stop-color="white"/>
<stop offset="1" stop-color="#FF4E31"/>
</linearGradient>
<linearGradient id="paint65_linear_4_2329" x1="1781.15" y1="-456.596" x2="1823.52" y2="-224.158" gradientUnits="userSpaceOnUse">
<stop stop-color="#DDDDDD"/>
<stop offset="1" stop-color="#A9A8A8"/>
</linearGradient>
<linearGradient id="paint66_linear_4_2329" x1="1815.81" y1="-227.033" x2="1956.58" y2="-518.564" gradientUnits="userSpaceOnUse">
<stop stop-color="#4C0000"/>
<stop offset="0.94" stop-color="#A00902"/>
</linearGradient>
<linearGradient id="paint67_linear_4_2329" x1="3032.74" y1="-194.767" x2="2937.17" y2="-509.466" gradientUnits="userSpaceOnUse">
<stop stop-color="#EBEBEB"/>
<stop offset="1" stop-color="white"/>
</linearGradient>
<linearGradient id="paint68_linear_4_2329" x1="2980.44" y1="-200.535" x2="2888.62" y2="-503.922" gradientUnits="userSpaceOnUse">
<stop stop-color="#EBEBEB"/>
<stop offset="1" stop-color="white"/>
</linearGradient>
<linearGradient id="paint69_linear_4_2329" x1="3298.34" y1="-859.875" x2="3126.63" y2="-374.917" gradientUnits="userSpaceOnUse">
<stop stop-color="white"/>
<stop offset="0.74" stop-color="#770025"/>
<stop offset="0.94" stop-color="white"/>
</linearGradient>
<linearGradient id="paint70_linear_4_2329" x1="73.6229" y1="107.055" x2="71.2215" y2="77.6095" gradientUnits="userSpaceOnUse">
<stop stop-color="#9A425E"/>
<stop offset="1" stop-color="#770025"/>
</linearGradient>
<linearGradient id="paint71_linear_4_2329" x1="14.4554" y1="45.1954" x2="13.677" y2="42.3004" gradientUnits="userSpaceOnUse">
<stop stop-color="#9A425E"/>
<stop offset="1" stop-color="#770025"/>
</linearGradient>
<linearGradient id="paint72_linear_4_2329" x1="72.4511" y1="64.1824" x2="71.7985" y2="51.911" gradientUnits="userSpaceOnUse">
<stop stop-color="#9A425E"/>
<stop offset="1" stop-color="#770025"/>
</linearGradient>
</defs>
</svg>
