<svg width="235" height="235" viewBox="0 0 235 235" fill="none" xmlns="http://www.w3.org/2000/svg">
<g clip-path="url(#clip0_5_2)">
<path d="M172.416 85.2882C172.416 85.2882 222.828 202.462 224.829 207.282C226.5 211.309 222.126 217.621 220.634 219.598C220.576 219.673 220.503 219.735 220.419 219.778C220.335 219.822 220.242 219.846 220.148 219.849C220.053 219.852 219.959 219.834 219.873 219.796C219.786 219.758 219.709 219.701 219.647 219.63L133.601 121.888C133.601 121.888 132.898 121.629 133.183 121.148C135.047 117.763 145.011 103.127 172.416 85.2882Z" fill="url(#paint0_linear_5_2)"/>
<path d="M219.647 219.63L218.864 218.741C220.62 215.933 224.348 211.432 223.151 208.518C221.181 203.729 169.881 87.7704 169.881 87.7704C170.475 86.5662 172.083 84.5369 172.42 85.2847C172.42 85.2847 222.832 202.462 224.829 207.282C226.5 211.309 222.126 217.621 220.637 219.594C220.58 219.67 220.507 219.732 220.422 219.776C220.338 219.819 220.245 219.844 220.151 219.847C220.056 219.851 219.961 219.833 219.874 219.795C219.787 219.758 219.71 219.701 219.647 219.63Z" fill="url(#paint1_linear_5_2)"/>
<g style="mix-blend-mode:multiply" opacity="0.75">
<path d="M212.324 203.153L208.504 206.97L208.286 206.724L211.98 203.03L193.611 180.596L189.194 185.02L188.973 184.767L193.414 180.333L175.046 157.899L169.874 163.06L169.664 162.814L174.842 157.636L156.47 135.209L150.565 141.107L150.354 140.871L156.375 134.85C156.41 134.815 156.445 134.78 156.498 134.798C156.545 134.801 156.59 134.822 156.621 134.857L212.355 202.915C212.381 202.951 212.393 202.996 212.387 203.04C212.381 203.085 212.358 203.125 212.324 203.153Z" fill="#C2C3C9"/>
</g>
<path d="M102.835 145.45L84.063 158.534L91.5972 172.234L94.6797 169.151L102.835 145.45Z" fill="#F0F1F5"/>
<path d="M89.5504 132.165L76.4656 150.937L62.7664 143.399L65.8489 140.32L89.5504 132.165Z" fill="#F0F1F5"/>
<path d="M107.185 155.385L96.5615 149.954L131.771 120.056L137.143 125.427L107.185 155.385Z" fill="url(#paint2_linear_5_2)"/>
<path d="M146.994 131.778C147.216 131.409 147.302 130.974 147.238 130.548C147.173 130.122 146.963 129.732 146.643 129.444L143.231 126.035L139.818 122.622C139.531 122.302 139.141 122.092 138.716 122.028C138.29 121.964 137.856 122.05 137.487 122.271C137.487 122.271 134.415 123.602 130.023 127.997C125.631 132.393 121.4 136.873 115.004 144.147C110.928 148.771 107.575 153.275 106.293 155.031C106.139 155.272 106.076 155.56 106.114 155.844C106.152 156.128 106.289 156.39 106.501 156.582L109.59 159.675L112.683 162.765C112.875 162.977 113.136 163.114 113.419 163.151C113.703 163.189 113.99 163.126 114.231 162.972C115.987 161.691 120.498 158.338 125.115 154.262C132.372 147.865 137.501 142.992 141.265 139.242C143.499 137.021 145.426 134.511 146.994 131.778Z" fill="#D5D6E0"/>
<path d="M146.461 132.702L136.55 122.791C137.164 122.44 137.501 122.289 137.501 122.289C137.87 122.068 138.304 121.982 138.73 122.046C139.155 122.11 139.545 122.32 139.832 122.64L146.657 129.461C146.977 129.749 147.188 130.14 147.252 130.566C147.316 130.992 147.23 131.427 147.008 131.796C147.008 131.796 146.815 132.13 146.461 132.702Z" fill="url(#paint3_linear_5_2)"/>
<path d="M149.715 62.5838C149.715 62.5838 32.5417 12.172 27.7178 10.1708C23.8103 8.54883 17.7437 12.6284 15.588 14.2293C15.4904 14.3023 15.4102 14.3962 15.3534 14.5041C15.2967 14.612 15.2649 14.7312 15.2602 14.853C15.2555 14.9749 15.2781 15.0962 15.3263 15.2082C15.3745 15.3202 15.4471 15.42 15.5388 15.5003L113.111 101.399C113.111 101.399 113.389 101.779 113.54 101.701C115.573 100.666 130.739 91.7552 149.715 62.5838Z" fill="url(#paint4_linear_5_2)"/>
<path d="M15.3738 15.3528L16.2586 16.1357C19.0497 14.3803 23.5715 10.6518 26.482 11.849C31.2708 13.8186 147.233 65.1221 147.233 65.1221C148.437 64.5253 150.463 62.9174 149.715 62.5838C149.715 62.5838 32.5417 12.172 27.7178 10.1708C23.6944 8.49969 17.382 12.8777 15.4054 14.3838C15.3332 14.4411 15.2742 14.5135 15.2327 14.5959C15.1912 14.6783 15.1682 14.7688 15.1652 14.861C15.1622 14.9532 15.1793 15.045 15.2153 15.1299C15.2514 15.2148 15.3054 15.2909 15.3738 15.3528Z" fill="url(#paint5_linear_5_2)"/>
<g style="mix-blend-mode:multiply" opacity="0.75">
<path d="M100.188 78.5264C100.188 78.5494 100.183 78.5721 100.174 78.5932C100.165 78.6143 100.152 78.6334 100.135 78.6493L94.1144 84.6703L93.8687 84.4597L99.7668 78.551L77.3432 60.1824L72.1613 65.3538L71.9155 65.1432L77.0764 59.9753L54.6423 41.6032L50.2116 46.0444L49.9554 45.8267L54.379 41.4136L31.9449 23.0415L28.2761 26.7173L28.0303 26.4961L31.8395 22.6869C31.8699 22.6612 31.9085 22.647 31.9484 22.647C31.9882 22.647 32.0268 22.6612 32.0572 22.6869L100.125 78.4141C100.155 78.4456 100.177 78.4842 100.188 78.5264Z" fill="#C2C3C9"/>
</g>
<path d="M79.6147 127.815L85.046 138.439L114.944 103.229L109.573 97.8605L79.6147 127.815Z" fill="url(#paint6_linear_5_2)"/>
<path d="M103.221 88.0091C103.59 87.7875 104.025 87.7012 104.45 87.7653C104.876 87.8294 105.266 88.0398 105.553 88.3602L108.965 91.7728L112.378 95.1853C112.694 95.4754 112.9 95.8662 112.961 96.2912C113.022 96.7162 112.934 97.1492 112.711 97.5165C112.711 97.5165 111.381 100.588 106.985 104.984C102.59 109.38 98.1097 113.607 90.8353 120C86.2116 124.076 81.7072 127.429 79.9518 128.71C79.7112 128.864 79.4238 128.928 79.1405 128.891C78.8572 128.854 78.5961 128.718 78.4035 128.506L75.3105 125.413L72.2174 122.32C72.0064 122.128 71.87 121.867 71.8321 121.584C71.7942 121.301 71.8573 121.013 72.0104 120.772C73.2953 119.017 76.6481 114.509 80.7242 109.889C87.1173 102.628 91.9939 97.5024 95.7399 93.7388C97.9657 91.5023 100.482 89.5751 103.221 88.0091Z" fill="#D5D6E0"/>
<path d="M102.302 88.5428L112.209 98.4503C112.56 97.8359 112.711 97.4989 112.711 97.4989C112.934 97.1317 113.022 96.6987 112.961 96.2737C112.9 95.8487 112.694 95.4578 112.378 95.1677L105.553 88.3427C105.266 88.0222 104.876 87.8119 104.45 87.7478C104.025 87.6837 103.59 87.7699 103.221 87.9916C103.221 87.9916 102.881 88.1847 102.302 88.5428Z" fill="url(#paint7_linear_5_2)"/>
<path d="M234.312 0.691582C230.766 -2.85434 204.888 7.40777 183.528 28.7781L142.206 70.0969C108.151 104.152 55.7307 171.075 59.8313 175.176C63.932 179.276 130.848 126.863 164.91 92.8084L206.232 51.4861C227.592 30.1122 237.872 4.234 234.312 0.691582Z" fill="#D5D6E0"/>
<path d="M234.312 0.691604C231.833 -1.79054 208.304 10.8238 186.944 32.1836L145.622 73.4989C111.567 107.554 56.9665 172.297 59.8313 175.162C62.6961 178.026 127.432 123.433 161.494 89.3713L202.816 48.0525C224.18 26.6962 236.791 3.17024 234.312 0.691604Z" fill="url(#paint8_linear_5_2)"/>
<g style="mix-blend-mode:multiply">
<path d="M158.348 97.6182L159.156 98.4257C159.261 98.3274 159.37 98.2256 159.472 98.1238L158.657 97.3092C158.444 97.0972 158.156 96.9782 157.855 96.9782C157.554 96.9782 157.266 97.0972 157.053 97.3092L153.444 100.918C153.338 101.024 153.255 101.149 153.198 101.286C153.141 101.424 153.111 101.572 153.111 101.721C153.111 101.87 153.141 102.017 153.198 102.155C153.255 102.292 153.338 102.418 153.444 102.523L154.114 103.193C154.22 103.095 154.325 102.993 154.434 102.898L153.732 102.196C153.602 102.065 153.529 101.888 153.529 101.703C153.529 101.518 153.602 101.341 153.732 101.21L157.344 97.6007C157.411 97.5349 157.49 97.4831 157.577 97.4483C157.663 97.4136 157.756 97.3965 157.85 97.3981C157.944 97.3998 158.036 97.4201 158.121 97.4579C158.207 97.4957 158.284 97.5502 158.348 97.6182Z" fill="#C2C3C9"/>
</g>
<g style="mix-blend-mode:multiply">
<path d="M182.685 34.8097L177.391 40.1075C177.179 40.3172 176.892 40.4348 176.594 40.4348C176.296 40.4348 176.009 40.3172 175.797 40.1075L173.993 38.2995L173.684 38.6084L175.492 40.413C175.785 40.7056 176.182 40.87 176.596 40.87C177.01 40.87 177.407 40.7056 177.7 40.413L182.994 35.1187C183.139 34.9739 183.254 34.802 183.332 34.6129C183.411 34.4237 183.451 34.221 183.451 34.0163C183.451 33.8115 183.411 33.6088 183.332 33.4196C183.254 33.2305 183.139 33.0586 182.994 32.9139L181.19 31.1093L180.881 31.4148L182.685 33.2228C182.79 33.3269 182.873 33.4505 182.929 33.5867C182.986 33.7228 183.015 33.8688 183.015 34.0163C183.015 34.1637 182.986 34.3097 182.929 34.4458C182.873 34.582 182.79 34.7057 182.685 34.8097Z" fill="#C2C3C9"/>
</g>
<path d="M191.262 66.4422L188.26 69.4474L187.716 68.9033C187.538 68.7237 187.437 68.4807 187.437 68.2274C187.437 67.9741 187.538 67.7312 187.716 67.5516L189.366 65.9015C189.455 65.8122 189.56 65.7414 189.676 65.693C189.792 65.6446 189.916 65.6198 190.042 65.6198C190.168 65.6198 190.292 65.6446 190.408 65.693C190.524 65.7414 190.63 65.8122 190.718 65.9015L191.262 66.4422Z" fill="#3D3E40"/>
<path d="M185.048 72.6563L182.05 75.6581L181.506 75.1139C181.327 74.9349 181.227 74.6925 181.227 74.4398C181.227 74.1871 181.327 73.9447 181.506 73.7657L183.159 72.1121C183.338 71.9338 183.581 71.8336 183.833 71.8336C184.086 71.8336 184.328 71.9338 184.507 72.1121L185.048 72.6563Z" fill="#3D3E40"/>
<path d="M178.837 78.867L175.836 81.8687L175.292 81.328C175.113 81.1491 175.013 80.9067 175.013 80.654C175.013 80.4013 175.113 80.1589 175.292 79.9799L176.949 78.3228C177.128 78.1444 177.37 78.0443 177.623 78.0443C177.875 78.0443 178.118 78.1444 178.297 78.3228L178.837 78.867Z" fill="#3D3E40"/>
<path d="M172.627 85.0846L169.622 88.0864L169.081 87.5457C168.992 87.4572 168.921 87.352 168.872 87.236C168.824 87.12 168.799 86.9955 168.799 86.8698C168.799 86.7442 168.824 86.6198 168.872 86.5038C168.921 86.3878 168.992 86.2825 169.081 86.194L170.735 84.5404C170.913 84.3621 171.156 84.2619 171.409 84.2619C171.661 84.2619 171.904 84.3621 172.083 84.5404L172.627 85.0846Z" fill="#3D3E40"/>
<path d="M166.413 91.2952L164.91 92.7943C164.415 93.2894 163.913 93.7914 163.4 94.2899L162.867 93.7563C162.687 93.5766 162.586 93.3329 162.586 93.0787C162.586 92.8246 162.687 92.5809 162.867 92.4011L164.517 90.7511C164.696 90.5727 164.938 90.4725 165.191 90.4725C165.444 90.4725 165.686 90.5727 165.865 90.7511L166.413 91.2952Z" fill="#3D3E40"/>
<path d="M168.558 43.7377L165.556 46.743L166.097 47.2836C166.276 47.4622 166.519 47.5625 166.773 47.5625C167.026 47.5625 167.269 47.4622 167.448 47.2836L169.102 45.6336C169.28 45.4546 169.381 45.2122 169.381 44.9595C169.381 44.7068 169.28 44.4644 169.102 44.2854L168.558 43.7377Z" fill="#3D3E40"/>
<path d="M162.344 49.9519L159.345 52.9536L159.886 53.4943C160.066 53.6729 160.309 53.7731 160.562 53.7731C160.815 53.7731 161.058 53.6729 161.238 53.4943L162.888 51.8442C163.066 51.6646 163.167 51.4217 163.167 51.1684C163.167 50.9151 163.066 50.6721 162.888 50.4925L162.344 49.9519Z" fill="#3D3E40"/>
<path d="M156.133 56.1625L153.131 59.1643L153.672 59.7085C153.851 59.8871 154.094 59.9873 154.348 59.9873C154.601 59.9873 154.844 59.8871 155.024 59.7085L156.677 58.0549C156.856 57.8753 156.956 57.6323 156.956 57.379C156.956 57.1258 156.856 56.8828 156.677 56.7032L156.133 56.1625Z" fill="#3D3E40"/>
<path d="M149.922 62.3766L146.917 65.3784L147.461 65.9226C147.64 66.101 147.883 66.2011 148.135 66.2011C148.388 66.2011 148.63 66.101 148.809 65.9226L150.463 64.269C150.642 64.0894 150.742 63.8464 150.742 63.5932C150.742 63.3399 150.642 63.0969 150.463 62.9173L149.922 62.3766Z" fill="#3D3E40"/>
<path d="M143.708 68.5838L142.206 70.0829C141.711 70.5779 141.209 71.08 140.71 71.5925L141.247 72.1297C141.427 72.3083 141.67 72.4085 141.923 72.4085C142.176 72.4085 142.419 72.3083 142.599 72.1297L144.249 70.4761C144.427 70.2971 144.527 70.0547 144.527 69.802C144.527 69.5493 144.427 69.307 144.249 69.128L143.708 68.5838Z" fill="#3D3E40"/>
<path d="M69.314 169.242L83.8839 223.815C84.0201 224.328 84.0192 224.869 83.8812 225.382C83.7432 225.895 83.4729 226.363 83.0974 226.739L75.1138 234.723C75.0078 234.829 74.8782 234.908 74.7355 234.955C74.5928 235.001 74.4412 235.014 74.293 234.99C74.1447 234.967 74.0041 234.909 73.8826 234.821C73.761 234.733 73.6621 234.617 73.5937 234.484L49.1689 187.112L69.314 169.242Z" fill="url(#paint9_linear_5_2)"/>
<g style="mix-blend-mode:multiply">
<path d="M79.0355 230.801L78.8775 230.959C78.8665 230.949 78.857 230.937 78.8494 230.924L59.1889 185.817L52.1672 192.839L52.1426 192.867L52.0373 192.674L59.1713 185.536C59.1987 185.513 59.2337 185.5 59.2696 185.501C59.3022 185.512 59.3297 185.534 59.3468 185.564L79.0355 230.801Z" fill="#C2C3C9"/>
</g>
<path d="M65.7576 165.686L11.189 151.12C10.6751 150.981 10.134 150.981 9.61998 151.119C9.10598 151.256 8.63725 151.526 8.26091 151.902L0.277317 159.886C0.171851 159.992 0.0929107 160.122 0.046834 160.265C0.000757354 160.407 -0.0112053 160.559 0.0120344 160.707C0.0352741 160.855 0.0930835 160.995 0.180632 161.117C0.268181 161.238 0.383033 161.337 0.516029 161.406L47.8875 185.845L65.7576 165.686Z" fill="url(#paint10_linear_5_2)"/>
<g style="mix-blend-mode:multiply">
<path d="M49.4814 175.734C49.4855 175.751 49.4845 175.77 49.4782 175.787C49.472 175.803 49.4609 175.818 49.4463 175.829L42.3193 182.966L42.1262 182.861L42.1508 182.833L49.19 175.794L4.07605 156.151C4.07605 156.151 4.05847 156.151 4.05145 156.126L4.20942 155.968L49.4287 175.653C49.4553 175.673 49.4739 175.702 49.4814 175.734Z" fill="#C2C3C9"/>
</g>
<path d="M46.5323 188.457C46.2459 188.171 46.0187 187.831 45.8637 187.457C45.7087 187.083 45.6289 186.682 45.6289 186.277C45.6289 185.872 45.7087 185.471 45.8637 185.097C46.0187 184.723 46.2459 184.383 46.5323 184.097L97.8534 132.776C98.4324 132.199 99.2164 131.875 100.034 131.875C100.851 131.875 101.635 132.199 102.214 132.776C102.5 133.062 102.727 133.402 102.882 133.776C103.037 134.15 103.117 134.551 103.117 134.956C103.117 135.361 103.037 135.762 102.882 136.136C102.727 136.51 102.5 136.85 102.214 137.136L50.8927 188.457C50.6065 188.744 50.2666 188.971 49.8925 189.126C49.5185 189.281 49.1175 189.361 48.7125 189.361C48.3076 189.361 47.9066 189.281 47.5325 189.126C47.1584 188.971 46.8186 188.744 46.5323 188.457Z" fill="url(#paint11_linear_5_2)"/>
<path d="M84.2245 150.776C83.4065 149.961 81.1525 149.487 78.4807 152.18L75.9495 154.708C75.9495 154.708 79.7622 152.426 81.177 153.84C82.5919 155.255 80.3099 159.068 80.3099 159.068L83.0308 156.347C83.0308 156.347 86.1168 152.671 84.2245 150.776Z" fill="#32558C"/>
<g style="mix-blend-mode:multiply" opacity="0.75">
<path d="M157.825 77.3994C157.767 77.3984 157.711 77.3744 157.671 77.3327C157.631 77.292 157.608 77.2371 157.608 77.18C157.608 77.1228 157.631 77.068 157.671 77.0273L162.193 72.5054C162.234 72.465 162.289 72.4424 162.347 72.4424C162.405 72.4424 162.46 72.465 162.502 72.5054C162.542 72.5461 162.564 72.6009 162.564 72.6581C162.564 72.7152 162.542 72.7701 162.502 72.8108L157.98 77.3327C157.939 77.3744 157.883 77.3984 157.825 77.3994Z" fill="#C2C3C9"/>
</g>
<path d="M215.522 36.6881C218.331 32.8683 219.735 23.2697 215.733 19.2674C211.73 15.2651 202.132 16.6588 198.312 19.478C194.492 22.2972 193.46 23.533 193.864 24.1263C194.268 24.7197 205.137 19.8572 210.14 24.8601C215.143 29.863 210.277 40.7325 210.874 41.1362C211.471 41.54 212.706 40.4973 215.522 36.6881Z" fill="url(#paint12_linear_5_2)"/>
<path d="M217.032 29.6734C217.242 28.1392 217.625 23.8209 215.806 20.949L211.73 25.0251C212.541 26.3191 213.078 27.7655 213.308 29.2751C213.538 30.7847 213.457 32.3254 213.068 33.8022C213.064 33.8144 213.064 33.8278 213.068 33.84C213.073 33.8522 213.081 33.8625 213.092 33.8691C213.103 33.8757 213.117 33.8783 213.129 33.8763C213.142 33.8743 213.154 33.868 213.163 33.8583L216.698 30.3265C216.875 30.149 216.991 29.9206 217.032 29.6734Z" fill="#353638"/>
<path d="M216.659 31.7553L213.166 35.2451C213.124 35.2877 213.095 35.3412 213.082 35.3995L212.029 39.4334C212.024 39.4559 212.027 39.4792 212.036 39.5C212.046 39.5207 212.062 39.5377 212.082 39.5484C212.103 39.5591 212.126 39.563 212.148 39.5594C212.171 39.5557 212.192 39.5448 212.208 39.5282C212.987 38.5944 215.055 36.0701 215.719 34.7886C216.145 33.8282 216.497 32.8364 216.772 31.822C216.777 31.8075 216.777 31.7917 216.771 31.7773C216.766 31.7629 216.756 31.7507 216.743 31.7429C216.73 31.7351 216.714 31.732 216.699 31.7342C216.684 31.7365 216.67 31.7439 216.659 31.7553Z" fill="#353638"/>
<path d="M205.327 17.9683C206.861 17.7612 211.183 17.3785 214.051 19.1971L209.975 23.2732C208.681 22.461 207.235 21.9232 205.725 21.6931C204.215 21.463 202.674 21.5456 201.198 21.9356C201.185 21.9391 201.172 21.9384 201.16 21.9336C201.148 21.9289 201.137 21.9202 201.131 21.9091C201.124 21.8979 201.121 21.8849 201.122 21.8719C201.124 21.859 201.129 21.8468 201.138 21.8373L204.673 18.3054C204.849 18.126 205.078 18.0078 205.327 17.9683Z" fill="#353638"/>
<path d="M203.245 18.344L199.755 21.8337C199.713 21.875 199.661 21.9041 199.604 21.918L195.566 22.9712C195.544 22.976 195.521 22.9733 195.5 22.9636C195.479 22.9539 195.462 22.9377 195.451 22.9175C195.441 22.8972 195.437 22.874 195.441 22.8514C195.444 22.8288 195.455 22.808 195.472 22.7922C196.406 22.0163 198.933 19.9449 200.211 19.2813C201.173 18.8543 202.166 18.5022 203.181 18.2281C203.196 18.2226 203.213 18.2226 203.228 18.2283C203.243 18.2339 203.255 18.2447 203.263 18.2588C203.271 18.2728 203.273 18.2892 203.27 18.3048C203.266 18.3204 203.257 18.3343 203.245 18.344Z" fill="#353638"/>
</g>
<defs>
<linearGradient id="paint0_linear_5_2" x1="241.485" y1="197.909" x2="114.223" y2="70.6471" gradientUnits="userSpaceOnUse">
<stop stop-color="#CDCED9"/>
<stop offset="0.48" stop-color="#CBCCD7"/>
<stop offset="0.76" stop-color="#C3C4CE"/>
<stop offset="0.98" stop-color="#B6B7C1"/>
<stop offset="1" stop-color="#B5B6BF"/>
</linearGradient>
<linearGradient id="paint1_linear_5_2" x1="201.062" y1="150.525" x2="180.568" y2="158.809" gradientUnits="userSpaceOnUse">
<stop stop-color="#DEDFEB"/>
<stop offset="0.35" stop-color="#CBCCD7"/>
<stop offset="0.45" stop-color="#B5B6BF"/>
<stop offset="0.52" stop-color="#B0B1BA"/>
<stop offset="0.61" stop-color="#A2A3AB"/>
<stop offset="0.7" stop-color="#8C8D93"/>
<stop offset="0.71" stop-color="#8E8F95"/>
<stop offset="0.76" stop-color="#9FA0A8"/>
<stop offset="0.81" stop-color="#ACADB5"/>
<stop offset="0.87" stop-color="#B3B4BD"/>
<stop offset="1" stop-color="#B5B6BF"/>
</linearGradient>
<linearGradient id="paint2_linear_5_2" x1="117.778" y1="138.61" x2="112.158" y2="132.99" gradientUnits="userSpaceOnUse">
<stop stop-color="#CDCED9"/>
<stop offset="1" stop-color="#B5B6BF"/>
</linearGradient>
<linearGradient id="paint3_linear_5_2" x1="132.981" y1="127.363" x2="146.992" y2="127.363" gradientUnits="userSpaceOnUse">
<stop stop-color="#B5B6BF"/>
<stop offset="1" stop-color="#919299"/>
</linearGradient>
<linearGradient id="paint4_linear_5_2" x1="36.8025" y1="-7.79023" x2="164.48" y2="119.887" gradientUnits="userSpaceOnUse">
<stop stop-color="#CDCED9"/>
<stop offset="0.47" stop-color="#CBCCD6"/>
<stop offset="0.75" stop-color="#C3C4CE"/>
<stop offset="0.99" stop-color="#B5B6BF"/>
<stop offset="1" stop-color="#B5B6BF"/>
</linearGradient>
<linearGradient id="paint5_linear_5_2" x1="-41415.5" y1="-80861.8" x2="-43568.1" y2="-77801" gradientUnits="userSpaceOnUse">
<stop stop-color="#DEDFEB"/>
<stop offset="0.35" stop-color="#CBCCD7"/>
<stop offset="0.45" stop-color="#B5B6BF"/>
<stop offset="0.52" stop-color="#B0B1BA"/>
<stop offset="0.61" stop-color="#A2A3AB"/>
<stop offset="0.7" stop-color="#8C8D93"/>
<stop offset="0.71" stop-color="#8E8F95"/>
<stop offset="0.76" stop-color="#9FA0A8"/>
<stop offset="0.81" stop-color="#ACADB5"/>
<stop offset="0.87" stop-color="#B3B4BD"/>
<stop offset="1" stop-color="#B5B6BF"/>
</linearGradient>
<linearGradient id="paint6_linear_5_2" x1="-547.907" y1="-21388.2" x2="19.7406" y2="-20820.5" gradientUnits="userSpaceOnUse">
<stop stop-color="#CDCED9"/>
<stop offset="1" stop-color="#B5B6BF"/>
</linearGradient>
<linearGradient id="paint7_linear_5_2" x1="27913.5" y1="14007.4" x2="28319.8" y2="14007.4" gradientUnits="userSpaceOnUse">
<stop stop-color="#B5B6BF"/>
<stop offset="1" stop-color="#919299"/>
</linearGradient>
<linearGradient id="paint8_linear_5_2" x1="139.145" y1="79.9987" x2="155.016" y2="95.8695" gradientUnits="userSpaceOnUse">
<stop stop-color="#DDDEE6"/>
<stop offset="0.51" stop-color="#E9EAF2"/>
<stop offset="1" stop-color="#DDDEE6"/>
</linearGradient>
<linearGradient id="paint9_linear_5_2" x1="86490" y1="106537" x2="92426.2" y2="106537" gradientUnits="userSpaceOnUse">
<stop stop-color="#CDCED9"/>
<stop offset="0.48" stop-color="#CBCCD7"/>
<stop offset="0.76" stop-color="#C3C4CE"/>
<stop offset="0.98" stop-color="#B6B7C1"/>
<stop offset="1" stop-color="#B5B6BF"/>
</linearGradient>
<linearGradient id="paint10_linear_5_2" x1="154063" y1="53142.6" x2="169050" y2="53142.6" gradientUnits="userSpaceOnUse">
<stop stop-color="#CDCED9"/>
<stop offset="0.48" stop-color="#CBCCD7"/>
<stop offset="0.76" stop-color="#C3C4CE"/>
<stop offset="0.98" stop-color="#B6B7C1"/>
<stop offset="1" stop-color="#B5B6BF"/>
</linearGradient>
<linearGradient id="paint11_linear_5_2" x1="72.2088" y1="158.444" x2="76.5706" y2="162.806" gradientUnits="userSpaceOnUse">
<stop stop-color="#C9CAD1"/>
<stop offset="0.5" stop-color="#E9EAF2"/>
<stop offset="1" stop-color="#C9CAD1"/>
</linearGradient>
<linearGradient id="paint12_linear_5_2" x1="200.126" y1="17.0222" x2="217.992" y2="34.8889" gradientUnits="userSpaceOnUse">
<stop stop-color="#516F9C"/>
<stop offset="0.51" stop-color="#7188AB"/>
<stop offset="0.55" stop-color="#6A82A8"/>
<stop offset="0.65" stop-color="#5C77A1"/>
<stop offset="0.78" stop-color="#53719D"/>
<stop offset="1" stop-color="#516F9C"/>
</linearGradient>
<clipPath id="clip0_5_2">
<rect width="235" height="235" fill="white"/>
</clipPath>
</defs>
</svg>
